<svg xmlns="http://www.w3.org/2000/svg" width="2208" height="10025" viewBox="0 0 2208 10025">
  <g fill="#FFF" fill-rule="evenodd" opacity=".75" transform="translate(-40 13.12)">
    <g transform="translate(0 .88)">
      <g transform="translate(.086 51.546)">
        <circle cx="43" cy="42.5" r="42.5"/>
        <circle cx="43" cy="1241.206" r="42.5"/>
        <circle cx="43" cy="213.071" r="42.5"/>
        <circle cx="43" cy="800.594" r="42.5"/>
        <circle cx="43" cy="340.045" r="42.5"/>
        <circle cx="43" cy="1538.751" r="42.5"/>
        <circle cx="43" cy="510.617" r="42.5"/>
        <circle cx="43" cy="1098.139" r="42.5"/>
      </g>
      <g transform="translate(2201.787 .369)">
        <circle cx="43" cy="42.5" r="42.5"/>
        <circle cx="43" cy="630.023" r="42.5"/>
        <circle cx="43" cy="1241.206" r="42.5"/>
        <circle cx="43" cy="213.071" r="42.5"/>
        <circle cx="43" cy="800.594" r="42.5"/>
        <circle cx="43" cy="1411.777" r="42.5"/>
        <circle cx="43" cy="927.568" r="42.5"/>
        <circle cx="43" cy="1538.751" r="42.5"/>
        <circle cx="43" cy="510.617" r="42.5"/>
      </g>
    </g>
    <g transform="translate(0 3316.66)">
      <g transform="translate(.086 221.546)">
        <circle cx="43" cy="43.071" r="42.5"/>
        <circle cx="43" cy="630.594" r="42.5"/>
        <circle cx="43" cy="1241.777" r="42.5"/>
        <circle cx="43" cy="170.045" r="42.5"/>
        <circle cx="43" cy="757.568" r="42.5"/>
        <circle cx="43" cy="1368.751" r="42.5"/>
        <circle cx="43" cy="340.617" r="42.5"/>
        <circle cx="43" cy="928.139" r="42.5"/>
      </g>
      <g transform="translate(2201.787 .369)">
        <circle cx="43" cy="42.5" r="42.5"/>
        <circle cx="43" cy="630.023" r="42.5"/>
        <circle cx="43" cy="1241.206" r="42.5"/>
        <circle cx="43" cy="800.594" r="42.5"/>
        <circle cx="43" cy="340.045" r="42.5"/>
        <circle cx="43" cy="1538.751" r="42.5"/>
        <circle cx="43" cy="1098.139" r="42.5"/>
      </g>
    </g>
    <g transform="translate(0 6712.22)">
      <g transform="translate(.086 .546)">
        <circle cx="43" cy="42.5" r="42.5"/>
        <circle cx="43" cy="630.023" r="42.5"/>
        <circle cx="43" cy="1241.206" r="42.5"/>
        <circle cx="43" cy="800.594" r="42.5"/>
        <circle cx="43" cy="1411.777" r="42.5"/>
        <circle cx="43" cy="340.045" r="42.5"/>
        <circle cx="43" cy="510.617" r="42.5"/>
        <circle cx="43" cy="1098.139" r="42.5"/>
      </g>
      <g transform="translate(2201.787 119.369)">
        <circle cx="43" cy="460.023" r="42.5"/>
        <circle cx="43" cy="43.071" r="42.5"/>
        <circle cx="43" cy="630.594" r="42.5"/>
        <circle cx="43" cy="1241.777" r="42.5"/>
        <circle cx="43" cy="170.045" r="42.5"/>
        <circle cx="43" cy="757.568" r="42.5"/>
        <circle cx="43" cy="1368.751" r="42.5"/>
        <circle cx="43" cy="928.139" r="42.5"/>
      </g>
    </g>
    <g transform="translate(0 1682.66)">
      <g transform="translate(.086 51.546)">
        <circle cx="43" cy="42.5" r="42.5"/>
        <circle cx="43" cy="630.023" r="42.5"/>
        <circle cx="43" cy="1241.206" r="42.5"/>
        <circle cx="43" cy="213.071" r="42.5"/>
        <circle cx="43" cy="800.594" r="42.5"/>
        <circle cx="43" cy="1411.777" r="42.5"/>
        <circle cx="43" cy="340.045" r="42.5"/>
        <circle cx="43" cy="927.568" r="42.5"/>
        <circle cx="43" cy="1538.751" r="42.5"/>
      </g>
      <g transform="translate(2201.787 .369)">
        <circle cx="43" cy="42.5" r="42.5"/>
        <circle cx="43" cy="1241.206" r="42.5"/>
        <circle cx="43" cy="800.594" r="42.5"/>
        <circle cx="43" cy="1411.777" r="42.5"/>
        <circle cx="43" cy="340.045" r="42.5"/>
        <circle cx="43" cy="510.617" r="42.5"/>
        <circle cx="43" cy="1098.139" r="42.5"/>
      </g>
    </g>
    <g transform="translate(0 4998.44)">
      <g transform="translate(.086 51.546)">
        <circle cx="43" cy="42.5" r="42.5"/>
        <circle cx="43" cy="630.023" r="42.5"/>
        <circle cx="43" cy="1241.206" r="42.5"/>
        <circle cx="43" cy="340.045" r="42.5"/>
        <circle cx="43" cy="927.568" r="42.5"/>
        <circle cx="43" cy="1538.751" r="42.5"/>
        <circle cx="43" cy="510.617" r="42.5"/>
        <circle cx="43" cy="1098.139" r="42.5"/>
      </g>
      <g transform="translate(2201.787 .369)">
        <circle cx="43" cy="42.5" r="42.5"/>
        <circle cx="43" cy="630.023" r="42.5"/>
        <circle cx="43" cy="1411.777" r="42.5"/>
        <circle cx="43" cy="340.045" r="42.5"/>
        <circle cx="43" cy="927.568" r="42.5"/>
        <circle cx="43" cy="1538.751" r="42.5"/>
        <circle cx="43" cy="510.617" r="42.5"/>
        <circle cx="43" cy="1098.139" r="42.5"/>
      </g>
    </g>
    <g transform="translate(.086 8394.546)">
      <circle cx="43" cy="42.5" r="42.5"/>
      <circle cx="43" cy="630.023" r="42.5"/>
      <circle cx="43" cy="1241.206" r="42.5"/>
      <circle cx="43" cy="213.071" r="42.5"/>
      <circle cx="43" cy="1411.777" r="42.5"/>
      <circle cx="43" cy="927.568" r="42.5"/>
      <circle cx="43" cy="1538.751" r="42.5"/>
      <circle cx="43" cy="510.617" r="42.5"/>
    </g>
    <g transform="translate(2201.787 8343.369)">
      <circle cx="43" cy="42.5" r="42.5"/>
      <circle cx="43" cy="1241.206" r="42.5"/>
      <circle cx="43" cy="800.594" r="42.5"/>
      <circle cx="43" cy="340.045" r="42.5"/>
      <circle cx="43" cy="1538.751" r="42.5"/>
      <circle cx="43" cy="510.617" r="42.5"/>
      <circle cx="43" cy="1098.139" r="42.5"/>
    </g>
  </g>
</svg>
