<?xml version="1.0" encoding="UTF-8"?>
<svg width="88px" height="60px" viewBox="0 0 88 60" version="1.1" xmlns="http://www.w3.org/2000/svg" xmlns:xlink="http://www.w3.org/1999/xlink">
    <!-- Generator: Sketch 50.2 (55047) - http://www.bohemiancoding.com/sketch -->
    <title>axure</title>
    <desc>Created with Sketch.</desc>
    <defs>
      <path d="M10.8240394,13.1024989 C9.76791206,13.8848773 8.48349642,14.3437095 7.09817529,14.3437095 C3.49713387,14.3437095 0.577913021,11.2433702 0.577913021,7.41890779 C0.577913021,3.59444542 3.49713387,0.494106091 7.09817529,0.494106091 C8.48349642,0.494106091 9.76791206,0.952938317 10.8240394,1.73531673 L10.8240394,0.494106091 L13.6184376,0.494106091 L13.6184376,14.3437095 L10.8240394,14.3437095 L10.8240394,13.1024989 Z M7.09817529,11.4587777 C9.19899196,11.4587777 10.9020404,9.65006634 10.9020404,7.41890779 C10.9020404,5.18774925 9.19899196,3.37903788 7.09817529,3.37903788 C4.99735862,3.37903788 3.29431021,5.18774925 3.29431021,7.41890779 C3.29431021,9.65006634 4.99735862,11.4587777 7.09817529,11.4587777 Z" id="path-1"></path>
    </defs>
    <g id="Page-1" stroke="none" stroke-width="1" fill="none" fill-rule="evenodd">
        <g id="Artboard-Copy" transform="translate(-439.000000, -202.000000)">
            <g id="Group-6" transform="translate(462.000000, 212.000000)">
                <path d="M8.14326546,0.399993896 L8.14326546,39.609993 L4.89611447,39.609993 C2.68697547,39.609993 0.896114465,37.8190302 0.896114465,35.6097657 L0.896114465,4.4002212 C0.896114465,2.19095666 2.68697547,0.399993896 4.89611447,0.399993896 L8.14326546,0.399993896 Z M11.1823933,0.399993896 L37.1061135,0.399993896 C39.3152525,0.399993896 41.1061135,2.19095666 41.1061135,4.4002212 L41.1061135,35.6097657 C41.1061135,37.8190302 39.3152525,39.609993 37.1061135,39.609993 L11.1823933,39.609993 L11.1823933,0.399993896 Z" id="Mask" fill="#C660E2"></path>
                <g id="Group-3" transform="translate(12.000000, 23.000000)">
                    <mask id="mask-2" fill="white">
                        <use xlink:href="#path-1"></use>
                    </mask>
                    <use id="Combined-Shape" fill="#FFFFFF" fill-rule="nonzero" xlink:href="#path-1"></use>
                    <polygon id="Combined-Shape" fill="#FFFFFF" points="24.2579813 0.50257672 27.5904281 0.50257672 22.7045041 7.49384453 27.5904281 14.312916 24.0142599 14.312916 20.9765906 9.96631566 17.9389214 14.312916 14.3627531 14.312916 19.2486771 7.49384453 14.3627531 0.50257672 17.6952 0.50257672 20.9765906 5.08227085"></polygon>
                </g>
            </g>
        </g>
    </g>
</svg>
