<?xml version="1.0" encoding="UTF-8"?>
<svg width="88px" height="60px" viewBox="0 0 88 60" version="1.1" xmlns="http://www.w3.org/2000/svg" xmlns:xlink="http://www.w3.org/1999/xlink">
    <!-- Generator: Sketch 50.2 (55047) - http://www.bohemiancoding.com/sketch -->
    <title>css3</title>
    <desc>Created with Sketch.</desc>
    <defs></defs>
    <g id="Page-1" stroke="none" stroke-width="1" fill="none" fill-rule="evenodd">
        <g id="Artboard-Copy" transform="translate(-299.000000, -19.000000)" fill-rule="nonzero">
            <g id="css" transform="translate(325.500000, 28.500000)">
                <g id="Group-10">
                    <path d="M1.1929065,0.846 L33.8069548,0.846 C34.3592395,0.846 34.8069548,1.29371525 34.8069548,1.846 C34.8069548,1.87562168 34.8056386,1.90522874 34.8030102,1.93473358 L31.7914203,35.740543 C31.7544678,36.1553428 31.4643202,36.5038207 31.0630785,36.615308 L17.7458869,40.3155661 C17.5706198,40.3642651 17.3853888,40.3642341 17.2101379,40.3154766 L3.93271168,36.6214896 C3.53158042,36.5098886 3.24157376,36.161417 3.2046805,35.7466882 L0.196839895,1.93460767 C0.147903232,1.38449527 0.554186437,0.898870058 1.10429883,0.849933395 C1.13376201,0.847312422 1.16332697,0.846 1.1929065,0.846 Z" id="Shape" fill="#0070BA"></path>
                    <polyline id="Shape" fill="#1B86C1" points="17.5 37.363 29.015 34.163 31.725 3.757 17.498 3.757 17.498 37.363"></polyline>
                    <polygon id="Shape" fill="#DEDEDE" points="12.628 26.985 12.318 23.505 7.945 23.505 8.555 30.357 17.479 32.839 17.499 28.292"></polygon>
                    <path d="M22.849,21.32 L17.405,21.321 L17.405,16.956 L27.61,16.956 L27.504,18.128 L26.414,30.356 L17.482,32.836 L17.482,28.296 L22.342,26.982 L22.849,21.32 Z M28.3928475,8.103 L28.4,8.1 L28.3997487,8.103 L28.401,8.103 L28.3792467,8.34772417 L28.037,12.433 L28.0121551,12.443533 L28.01,12.467 L27.9570033,12.4669146 L17.465,16.915 L17.465,21.279 L17.459,12.689 L18.026642,12.4509131 L17.46,12.45 L17.46,12.451 L17.46,8.103 L28.3928475,8.103 Z" id="Combined-Shape" fill="#F8F8F8"></path>
                    <polygon id="Shape" fill="#DEDEDE" points="7.034 12.434 6.634 8.102 17.499 8.102 17.499 12.452 7.033 12.434"></polygon>
                    <polygon id="Shape" fill="#DEDEDE" points="7.75 21.321 17.46 21.321 17.46 12.693 7.405 16.907"></polygon>
                </g>
            </g>
        </g>
    </g>
</svg>
