<?xml version="1.0" encoding="UTF-8"?>
<svg width="88px" height="60px" viewBox="0 0 88 60" version="1.1" xmlns="http://www.w3.org/2000/svg" xmlns:xlink="http://www.w3.org/1999/xlink">
    <!-- Generator: Sketch 50.2 (55047) - http://www.bohemiancoding.com/sketch -->
    <title>javascript</title>
    <desc>Created with Sketch.</desc>
    <defs></defs>
    <g id="Page-1" stroke="none" stroke-width="1" fill="none" fill-rule="evenodd">
        <g id="Artboard-Copy" transform="translate(-439.000000, -19.000000)">
            <g id="Group-18" transform="translate(463.000000, 29.000000)">
                <g id="Group-19">
                    <path d="M1,0 L38.5451261,0 C39.0974109,-1.01453063e-16 39.5451261,0.44771525 39.5451261,1 L39.5451261,38.5451261 C39.5451261,39.0974109 39.0974109,39.5451261 38.5451261,39.5451261 L1,39.5451261 C0.44771525,39.5451261 6.76353751e-17,39.0974109 0,38.5451261 L0,1 C-6.76353751e-17,0.44771525 0.44771525,1.01453063e-16 1,0 Z" id="Rectangle-13" fill="#F8D62C"></path>
                    <path d="M19.8172043,27.9801808 C19.8172043,28.6635035 19.7399249,29.3793547 19.5853638,30.1277558 C19.4308027,30.8761569 19.1460892,31.5635368 18.7312146,32.189916 C18.3163401,32.8162951 17.7387784,33.3328469 16.998512,33.7395866 C16.2582457,34.1463263 15.3024217,34.3496931 14.1310113,34.3496931 C12.6667482,34.3496931 11.4465473,33.9714309 10.470372,33.214895 C9.4941966,32.4583591 8.84342279,31.4862657 8.518031,30.2985857 L12.2030746,29.0539683 C12.3169617,29.5095168 12.5243958,29.8755771 12.8253832,30.1521601 C13.1263706,30.4287431 13.4964982,30.5670325 13.9357772,30.5670325 C14.6190999,30.5670325 15.0705742,30.331127 15.2902137,29.8593089 C15.5098532,29.3874908 15.6196712,28.7692557 15.6196712,28.004585 L15.6196712,16.6077947 L19.8172043,16.6077947 L19.8172043,27.9801808 Z M32.4098035,21.0981789 C32.0518725,20.6426304 31.5841288,20.2806374 31.0065584,20.0121892 C30.428988,19.743741 29.8717629,19.6095189 29.3348665,19.6095189 C29.0582835,19.6095189 28.7776373,19.6339229 28.4929194,19.6827317 C28.2082016,19.7315405 27.9519594,19.8250892 27.7241852,19.9633807 C27.4964109,20.1016722 27.3052461,20.280635 27.150685,20.5002745 C26.9961239,20.7199139 26.9188445,21.0005601 26.9188445,21.3422215 C26.9188445,21.6350741 26.9798546,21.8791143 27.1018765,22.0743494 C27.2238984,22.2695844 27.4028612,22.4404126 27.6387703,22.5868389 C27.8746793,22.7332652 28.1553255,22.8674873 28.4807173,22.9895092 C28.8061091,23.1115311 29.1721694,23.2376185 29.5789091,23.3677752 C30.1646143,23.5630103 30.7747148,23.7785791 31.4092287,24.0144882 C32.0437427,24.2503972 32.6213045,24.5635821 33.1419313,24.9540523 C33.6625582,25.3445224 34.0936959,25.8285354 34.4353572,26.4061059 C34.7770186,26.9836763 34.9478467,27.7035948 34.9478467,28.5658831 C34.9478467,29.558328 34.7648166,30.416536 34.3987508,31.1405327 C34.0326851,31.8645294 33.5405374,32.4624279 32.922293,32.9342459 C32.3040486,33.406064 31.5963321,33.755855 30.7991222,33.9836292 C30.0019123,34.2114035 29.1803104,34.3252889 28.3342917,34.3252889 C27.0978029,34.3252889 25.9020061,34.1097201 24.7468652,33.6785759 C23.5917244,33.2474318 22.631833,32.633264 21.8671623,31.8360542 L24.6004397,29.0539683 C25.023449,29.5745952 25.5806741,30.0098001 26.2721316,30.3595963 C26.9635891,30.7093925 27.650969,30.8842879 28.3342917,30.8842879 C28.6434139,30.8842879 28.9443968,30.8517493 29.2372494,30.7866709 C29.530102,30.7215925 29.7863442,30.6158418 30.0059837,30.4694155 C30.2256231,30.3229892 30.4005186,30.127757 30.5306753,29.8837132 C30.660832,29.6396694 30.7259094,29.3468211 30.7259094,29.0051598 C30.7259094,28.679768 30.6445627,28.4031891 30.4818668,28.1754149 C30.3191709,27.9476406 30.0873327,27.7402065 29.7863453,27.5531062 C29.4853579,27.3660059 29.111163,27.1951778 28.6637493,27.0406167 C28.2163356,26.8860556 27.7079185,26.7192948 27.1384829,26.5403293 C26.5853169,26.3613638 26.0443611,26.1498623 25.5155995,25.9058185 C24.9868378,25.6617747 24.5150268,25.3485898 24.1001523,24.9662544 C23.6852778,24.5839191 23.3517562,24.1202427 23.0995775,23.5752115 C22.8473989,23.0301802 22.7213115,22.3672044 22.7213115,21.5862641 C22.7213115,20.6263584 22.9165436,19.8047564 23.3070138,19.1214337 C23.6974839,18.4381109 24.2099683,17.8768185 24.8444823,17.4375396 C25.4789963,16.9982607 26.1948474,16.6769411 26.9920573,16.4735712 C27.7892672,16.2702014 28.5945998,16.168518 29.4080793,16.168518 C30.3842546,16.168518 31.380752,16.3474808 32.3976014,16.7054117 C33.4144507,17.0633427 34.3051973,17.5920964 35.069868,18.2916888 L32.4098035,21.0981789 Z" id="JS" fill="#FAFAFA"></path>
                </g>
            </g>
        </g>
    </g>
</svg>