<?xml version="1.0" encoding="UTF-8"?>
<svg width="88px" height="60px" viewBox="0 0 88 60" version="1.1" xmlns="http://www.w3.org/2000/svg" xmlns:xlink="http://www.w3.org/1999/xlink">
    <!-- Generator: Sketch 50.2 (55047) - http://www.bohemiancoding.com/sketch -->
    <title>node</title>
    <desc>Created with Sketch.</desc>
    <defs></defs>
    <g id="Page-1" stroke="none" stroke-width="1" fill="none" fill-rule="evenodd">
        <g id="Artboard-Copy" transform="translate(-158.000000, -202.000000)">
            <path d="M182.605374,219.827325 C181.920268,220.216745 181.5,220.935674 181.5,221.712802 L181.5,242.539486 C181.5,243.317042 181.920268,244.035543 182.605374,244.424963 L200.897882,254.839161 C201.581686,255.227297 202.424827,255.227297 203.107762,254.839161 L221.397231,244.424963 C222.078864,244.035543 222.5,243.316614 222.5,242.539486 L222.5,221.712802 C222.5,220.935674 222.078864,220.216745 221.392889,219.827325 L203.106025,209.421258 C202.763038,209.227404 202.380976,209.130263 201.998915,209.130263 C201.616853,209.130263 201.234791,209.227404 200.891804,209.421258 L182.605374,219.827325 Z" id="Combined-Shape" fill="#7CAF00"></path>
            <g id="NPM-Copy" transform="translate(184.076553, 222.031841)" fill="#FFFFFF">
                <g id="word" transform="translate(0.373001, 0.468652)">
                    <path d="M23.924977,10.5128058 C23.924977,10.5513252 23.9039819,10.5869787 23.8696812,10.6060276 L22.6127376,11.3128614 C22.5786097,11.3319946 22.5364466,11.3319946 22.5024051,11.3128614 L21.2452887,10.6060276 C21.2107288,10.5868944 21.1899929,10.5512409 21.1899929,10.5128058 L21.1899929,9.0971155 C21.1899929,9.05851189 21.2107288,9.02294263 21.2444247,9.00355654 L22.5006771,8.2955428 C22.535237,8.27615671 22.5775729,8.27615671 22.6121328,8.2955428 L23.8692492,9.00355654 C23.9038091,9.02294263 23.924545,9.05851189 23.924545,9.0971155 L23.924977,10.5128058 Z M24.2645281,0.027290862 C24.1959267,-0.00996414695 24.1124645,-0.00895269875 24.0447271,0.0295666204 C23.9773353,0.0683388017 23.9356906,0.139140176 23.9356906,0.215841665 L23.9356906,5.69451945 C23.9356906,5.74846335 23.9063147,5.79819289 23.8584492,5.82516484 C23.8109294,5.85213679 23.7517455,5.85213679 23.7037937,5.82516484 L22.7870923,5.31008484 C22.6505807,5.2330462 22.4824468,5.2330462 22.3454168,5.31008484 L18.6846593,7.37116342 C18.5478884,7.44786491 18.4634759,7.59031053 18.4634759,7.74371351 L18.4634759,11.8670507 C18.4634759,12.0212966 18.5478884,12.1628993 18.6846593,12.2404437 L22.3454168,14.3029551 C22.4821012,14.3796566 22.6504079,14.3796566 22.7875243,14.3029551 L26.4482818,12.2396008 C26.5847934,12.1620564 26.6694652,12.0204537 26.6694652,11.8662078 L26.6694652,1.58989405 C26.6694652,1.43345673 26.5822014,1.28957822 26.4422338,1.2131296 L24.2645281,0.027290862 Z" id="Shape"></path>
                    <path d="M9.45297423,7.27553627 L13.1129315,5.18714308 C13.181579,5.14823852 13.2580472,5.1287433 13.3345153,5.1287433 C13.4109835,5.1287433 13.4874517,5.14823852 13.5560992,5.18714308 L17.2161434,7.27553627 C17.3534385,7.35368891 17.4377272,7.49797072 17.4377272,7.65393247 L17.4377272,11.8336388 C17.4377272,11.9896006 17.3534385,12.1338824 17.2170123,12.212035 L13.5564468,14.30206 C13.41976,14.379955 13.2510086,14.379955 13.114148,14.30206 L9.45297423,12.212035 C9.31585292,12.1338824 9.23173794,11.9896865 9.23173794,11.8336388 L9.23173794,7.65393247 C9.23173794,7.49797072 9.31585292,7.35368891 9.45297423,7.27553627 Z M14.7022247,10.5128058 L14.7017927,9.0971155 C14.7017927,9.05851189 14.6810567,9.02294263 14.6464968,9.00355654 L13.3893804,8.2955428 C13.3548205,8.27615671 13.3124846,8.27615671 13.2779247,8.2955428 L12.0216723,9.00355654 C11.9879764,9.02294263 11.9672405,9.05851189 11.9672405,9.0971155 L11.9672405,10.5128058 C11.9672405,10.5512409 11.9879764,10.5868944 12.0225363,10.6060276 L13.2796527,11.3128614 C13.3136942,11.3319946 13.3558573,11.3319946 13.3899852,11.3128614 L14.6469288,10.6060276 C14.6812295,10.5869787 14.7022247,10.5513252 14.7022247,10.5128058 Z" id="Combined-Shape"></path>
                    <path d="M35.6808389,9.06161415 C35.8172342,8.98318498 35.9012031,8.83833987 35.9012031,8.68216801 L35.9012031,7.66481988 C35.9012031,7.50830478 35.8171476,7.36388872 35.6804923,7.28511632 L32.0323075,5.18795132 C31.8945257,5.1090073 31.7255481,5.1090073 31.5877663,5.18795132 L27.9170512,7.2859744 C27.7792694,7.36491842 27.6952138,7.50907706 27.6952138,7.66610701 L27.6952138,11.8621532 C27.6952138,12.0200412 27.7810025,12.165916 27.9187843,12.244002 L31.5661025,14.302553 C31.7004181,14.3789228 31.865063,14.3797809 32.0011117,14.3051273 L34.2073535,13.090934 C34.2766777,13.0523201 34.3208719,12.9793827 34.3208719,12.9004386 C34.3208719,12.8214946 34.2784108,12.7476991 34.2090867,12.7090852 L30.5158412,10.610204 C30.446517,10.5715901 30.404056,10.4986527 30.404056,10.4205668 L30.404056,9.10426108 C30.404056,9.0256603 30.4456505,8.95323774 30.5149747,8.91410897 L31.6640229,8.25767229 C31.7324805,8.21820029 31.8165361,8.21820029 31.8849937,8.25767229 L33.0349084,8.91410897 C33.1033661,8.95272289 33.1458271,9.0256603 33.1458271,9.10374623 L33.1458271,10.1385993 C33.1458271,10.2166853 33.1882882,10.2896227 33.2567458,10.3290947 C33.3252034,10.3677086 33.4101255,10.3677086 33.4785832,10.3282366 L35.6808389,9.06161415 Z" id="Path"></path>
                    <path d="M8.20598928,7.60523863 C8.20598928,7.4506939 8.12214533,7.30874793 7.98488327,7.23189552 L4.32375491,5.18501774 C4.26195241,5.14974123 4.19271632,5.13126305 4.12252942,5.1287433 L4.08466998,5.1287433 C4.01448309,5.13126305 3.945247,5.14974123 3.88240725,5.18501774 L0.221451763,7.23189552 C0.0850540728,7.30916789 0,7.45111386 0,7.60565859 L0.00803864712,13.1188739 C0.00803864712,13.1953064 0.0486640681,13.2666993 0.117813721,13.3044956 C0.185234632,13.3448116 0.269942957,13.3448116 0.337363868,13.3044956 L2.51384919,12.0933352 C2.65128412,12.0138791 2.73512807,11.873445 2.73512807,11.7204121 L2.73512807,9.14480653 C2.73512807,8.99110172 2.81897203,8.84915574 2.95597478,8.77272329 L3.88258012,8.25415852 C3.95138403,8.21552234 4.02693002,8.19637223 4.10385901,8.19637223 C4.17957788,8.19637223 4.25685262,8.21535436 4.32375491,8.25407453 L5.24992807,8.77247132 C5.38701725,8.84890377 5.47120696,8.99084974 5.47120696,9.14455456 L5.47120696,11.7199921 C5.47120696,11.872857 5.55617459,12.0139631 5.69291803,12.0929153 L7.86802036,13.3032357 C7.93630564,13.3427118 8.02127327,13.3427118 8.08929924,13.3032357 C8.15637441,13.2654394 8.19890144,13.1940465 8.19890144,13.117614 L8.20598928,7.60523863 Z" id="Path"></path>
                </g>
            </g>
        </g>
    </g>
</svg>