<?xml version="1.0" encoding="UTF-8"?>
<svg width="88px" height="60px" viewBox="0 0 88 60" version="1.1" xmlns="http://www.w3.org/2000/svg" xmlns:xlink="http://www.w3.org/1999/xlink">
    <!-- Generator: Sketch 50.2 (55047) - http://www.bohemiancoding.com/sketch -->
    <title>sass</title>
    <desc>Created with Sketch.</desc>
    <defs></defs>
    <g id="Page-1" stroke="none" stroke-width="1" fill="none" fill-rule="evenodd">
        <g id="Artboard-Copy" transform="translate(-158.000000, -112.000000)" fill="#CC6699" fill-rule="nonzero">
            <g id="sass" transform="translate(180.500000, 119.000000)">
                <path d="M41.3125364,22.1651011 C39.7615532,21.5584818 37.6086678,21.8584895 36.1048556,22.4943548 C35.8529624,22.6009613 35.6520138,22.6509626 35.6520138,22.6509626 C35.6520138,22.6509626 35.3463456,22.1915169 35.2557772,22.0094367 C35.0595458,21.6226343 34.8935038,21.2207372 34.7935012,20.7999717 C34.6170816,20.0546696 34.6642526,19.0895505 34.9416182,18.3782115 C35.0170919,18.1895274 35.3567232,17.6687593 35.1227549,17.4942265 C34.9038814,17.3319582 34.5519856,17.3130898 34.2906581,17.293278 C33.9831031,17.2706359 33.6491322,17.2602583 33.3472377,17.340449 C32.762317,17.4970568 32.7717512,17.755554 32.6057092,18.2810392 C32.0302228,20.0924064 30.9509498,21.6556541 30.0490398,23.3151306 C29.4971389,23.1528623 29.3622298,21.5915015 29.36506,21.1622452 C29.36506,20.690535 29.4443073,20.2188247 29.5801599,19.7659829 C29.6697848,19.4697489 29.8301663,19.124457 29.7924295,18.8084112 C29.7377111,18.3461352 28.7735354,18.4442509 28.4735277,18.4716101 C27.8508702,18.5282153 27.5206731,18.6225574 27.2970824,19.2669135 C26.2310174,22.3632194 23.5422691,27.786 23.2658469,27.8822289 C22.909234,27.1199452 23.7941624,24.4708206 23.9771859,23.9557131 C24.0998306,23.6085344 24.4187067,22.9868203 24.3054962,22.611339 C24.107378,21.9462276 23.4016995,22.2594431 22.9422537,22.3301997 C23.021501,21.7688645 23.1347115,21.0509216 22.8743275,20.5188324 C22.1195911,18.97634 19.5015994,20.60091 18.836488,21.4943292 C18.6327092,21.7698079 18.3893067,22.0603814 18.0157122,22.3500115 C17.2968258,22.9066296 14.1854253,24.2962879 14.1854253,24.2962879 C14.1854253,24.2962879 12.9250156,23.0962571 12.4665132,22.7179455 L12.3533028,22.6254903 C11.6976256,22.1037788 10.9570405,21.6764093 10.2985331,21.1160176 C9.62398746,20.5424179 8.9796313,19.9112697 8.53433686,19.1442689 C7.51072569,17.3800727 8.28150018,15.8856947 9.20699563,14.3139562 C9.55606119,13.7243185 9.9305991,13.5309173 10.2570226,13.1158123 C10.4928777,12.8186349 11.0617602,12.3516417 11.4627139,12.0686156 C13.0759628,10.9270769 14.7580815,9.9996946 16.4628422,9.18929645 C17.4817363,8.70626519 18.5506316,8.3326707 19.6289612,8.00436039 C20.6157789,7.70435269 21.5818415,7.63642642 22.5884711,7.50434756 C24.1328503,7.30056874 26.4225317,7.48925283 27.4848231,8.76570068 C28.6688158,10.184605 27.4121797,12.2771115 26.4376264,13.4507266 C25.3385416,14.7762323 23.8215216,15.6838027 22.2205371,16.3187247 C20.4799264,17.0074216 18.4628935,17.5149818 16.5920908,17.0574229 C16.1109464,16.9385519 15.6694256,16.747981 15.2411127,16.5045785 C15.0448813,16.3932549 14.5212829,15.83475 14.3807133,15.881921 C13.9505136,16.0272078 14.6543052,17.2328991 14.9429919,17.2328991 C14.9429919,17.4442252 15.5052704,17.6932882 15.7477295,17.867821 C16.1250977,18.1385827 16.5637882,18.2404721 17.0147431,18.3348141 C17.9600504,18.5329324 18.9327169,18.5546311 19.8997228,18.4574588 C23.8809571,18.0583919 27.5980336,15.4762502 28.6320224,13.9507394 C28.8924064,13.5677107 29.1603378,13.1837386 29.3660035,12.7686336 C29.7490322,12.0025762 29.9697925,11.1534978 30.0216807,10.303476 C30.1330043,8.49776927 29.3990232,6.96848475 27.7319993,6.13355767 C27.3168943,5.92411833 26.8829209,5.75430265 26.4489475,5.59580802 C24.6677697,4.94013082 21.7639216,4.98258474 19.8204755,5.4750502 C18.8279972,5.72694346 17.8987281,6.02600774 16.9288919,6.38828118 C13.8306992,7.54868832 10.5957105,9.18552277 8.3098028,11.3667108 C7.32298502,12.3082444 6.36824354,13.4752555 5.73426501,14.6705692 C4.88235636,16.2706102 4.89179056,17.8517829 5.90879779,19.3725766 C6.878634,20.8235572 8.38338959,22.0141538 9.84946494,22.9236111 C10.2145687,23.150032 10.6211829,23.4557002 10.9768524,23.7255185 C11.2759166,23.9519394 11.6891348,24.1632656 11.929707,24.3991207 C12.1155608,24.5812008 12.7910499,25.0312124 12.7910499,25.0312124 C12.7910499,25.0312124 11.579698,25.7793448 11.2598785,25.936896 C10.9079827,26.1114288 8.96170632,27.5378805 8.30508569,28.0199683 C7.10882858,28.8973493 6.1446529,30.4011615 6.4125843,31.9861078 C6.68617623,33.6106778 8.10413714,34.7408955 10.5391053,34.118238 C12.3334909,33.6597357 13.4608784,32.6634837 14.5203395,31.3568464 C15.237339,30.4728614 15.7326348,28.6709284 15.4826284,27.4907094 C15.4826284,26.9171098 15.4354573,26.4765325 15.2279048,25.9378394 C15.142997,25.7208527 14.9561998,25.3953727 15.1854509,25.2208399 C15.4779113,24.9991361 15.8779215,24.8529059 16.1930239,24.6453534 C16.4222751,24.4944061 16.9326656,24.117038 17.2024838,24.117038 C17.1930496,24.5764837 17.0090826,25.095365 16.9175708,25.551037 C16.8015301,26.1293538 16.7722841,26.6520087 16.7722841,27.2454201 C16.7722841,28.2388418 17.0902168,29.601141 17.8308018,30.3351221 C18.6015763,31.0992926 19.678019,30.655885 20.1327477,29.9898302 C20.4280383,29.5605739 20.6101184,29.0115032 20.8638985,28.5530009 C21.0808852,28.1586511 21.1959825,27.5878817 21.4705178,27.2463636 C21.5884454,27.5992028 21.4733481,28.070913 21.479952,28.4426207 C21.4959902,29.4049095 21.9422281,30.1728537 22.3318607,30.1973827 C23.353585,30.2068169 23.8413334,29.2992464 24.2620989,28.5313022 C24.913059,27.3397622 25.5894915,26.1661472 26.1961108,24.9500782 C26.4980053,24.3406286 26.7017841,23.7443869 26.9942445,23.138711 C27.1895325,22.7330402 27.3244416,22.1481195 27.6074678,21.799054 C28.0018175,22.817948 28.1508779,23.8868434 28.6990052,24.8500756 C28.9725971,25.3274464 28.3518265,25.6727383 28.072574,26.0510499 C27.7159611,26.5350245 27.2942522,26.9661677 26.8970722,27.4190095 C26.3951725,27.9869486 25.5508112,28.7614968 26.1932805,29.4615147 C26.6932934,30.0086986 28.2688055,29.4737792 28.8386314,29.2209425 C30.5782987,28.4473378 31.4179429,26.843523 30.8103801,25.0161176 C30.7632091,24.8746046 30.7009434,24.7142231 30.5839592,24.6104469 C31.0273668,23.8368421 31.5462481,23.09154 31.808519,22.6264337 C32.0519214,22.1943471 32.8038275,20.6395903 32.9877945,20.6395903 C33.1104392,21.229228 33.4745994,22.3122747 33.9934807,23.4509831 C33.0500602,24.2028892 31.8405953,26.3661523 31.8405953,26.8944677 C31.653798,27.5520318 31.8538031,28.4473378 32.7387315,28.3992233 C33.5104494,28.3567694 34.7765196,27.7416593 35.3020048,27.1784373 C35.6067296,26.8520138 36.1444793,26.428418 36.3180686,25.7934961 C36.4454304,25.3312201 36.3765607,24.8274336 36.2595766,24.3689312 C36.1558003,23.9660907 35.8916426,23.7396698 36.3407107,23.5547594 C37.0558234,23.2604122 37.8530137,23.1622965 38.6237882,23.1462583 C40.0605513,23.1173302 41.6047702,23.3382196 42.7131216,24.2461503 C41.5090602,34.7091965 32.6210099,42.8339009 21.8353333,42.8339009 C10.2281709,42.8339009 0.818706644,33.4244366 0.818706644,21.8172742 C0.818706644,10.2101118 10.2281709,0.800647525 21.8353333,0.800647525 C33.4424957,0.800647525 42.85196,10.2101118 42.85196,21.8172742 C42.85196,22.1896385 42.8422761,22.5597411 42.8231465,22.9273437 C42.3627724,22.624621 41.8484741,22.3753536 41.3125364,22.1651011 Z M13.785415,28.72376 C13.5306915,29.4501937 13.1420023,30.1294564 12.5967052,30.6841876 C12.1099003,31.1785399 11.5051678,31.6134567 10.8579814,31.8823316 C9.03246285,32.6342376 8.13338317,31.710629 8.91453529,30.2030432 C9.30416793,29.4539674 9.78719919,28.7473455 10.4183475,28.1699722 C10.9891168,27.6482607 11.5787546,27.3907069 12.1193345,26.9774887 C12.5816105,26.6265363 13.8665491,25.9868973 13.8665491,25.9868973 C13.8665491,25.9868973 14.1118385,27.792604 13.785415,28.7247034 L13.785415,28.72376 Z M21.0780549,25.0802702 C20.710121,25.9859539 20.0902938,27.6331659 19.5563178,28.1520472 C19.3695205,28.3331839 19.2780088,28.5199811 19.056305,28.2595971 C18.9430945,28.1256314 18.8817722,27.9482684 18.8393183,27.7812829 C18.5393106,26.6048377 18.8062985,25.2265004 19.2949903,24.1538314 C20.8346525,20.7763862 21.9384544,21.4537621 21.9384544,21.4537621 C21.9969464,22.2915194 21.3912705,24.3142128 21.0799418,25.0802702 L21.0780549,25.0802702 Z M27.4272745,28.4105444 L27.4291613,28.4114878 C28.1772937,28.6662113 29.845261,26.4670983 29.2943035,26.19728 C29.0225984,26.6699337 28.624475,27.0539058 28.2622015,27.4595766 C28.0404977,27.7086396 27.5168994,28.0897814 27.4272745,28.4105444 Z M34.1708437,26.5633272 C33.9283847,26.8388059 32.946284,27.525616 33.0594945,26.7972954 C33.1425154,26.2595458 33.491581,25.8019869 33.7783808,25.3538622 C33.9576307,25.0746097 34.4236804,24.6689389 34.4236804,24.5104443 C34.4897198,24.5010101 34.5500987,24.478368 34.6029303,24.4406312 C34.8718051,25.1614044 34.6765171,25.9878407 34.1708437,26.5633272 Z" id="Combined-Shape"></path>
            </g>
        </g>
    </g>
</svg>