<?xml version="1.0" encoding="UTF-8"?>
<svg width="88px" height="60px" viewBox="0 0 88 60" version="1.1" xmlns="http://www.w3.org/2000/svg" xmlns:xlink="http://www.w3.org/1999/xlink">
    <!-- Generator: Sketch 50.2 (55047) - http://www.bohemiancoding.com/sketch -->
    <title>svg</title>
    <desc>Created with Sketch.</desc>
    <defs></defs>
    <g id="Page-1" stroke="none" stroke-width="1" fill="none" fill-rule="evenodd">
        <g id="Artboard-Copy" transform="translate(-439.000000, -112.000000)" fill-rule="nonzero">
            <g id="svg" transform="translate(462.000000, 120.000000)">
                <path d="M21.035,0.4 C23.979,0.4 26.541,2.08 27.798,4.544 C30.416,3.72 33.384,4.352 35.448,6.416 C37.508,8.476 38.142,11.442 37.321,14.056 C39.783,15.322 41.454,17.899 41.454,20.88 L41.454,37.953 C41.454,40.118 39.696,41.873 37.531,41.873 L4.583,41.873 C2.417,41.873 0.66,40.118 0.66,37.953 L0.66,20.816 C0.66,17.88 2.33,15.324 4.78,14.062 C3.957,11.446 4.59,8.479 6.653,6.416 C8.709,4.359 11.665,3.724 14.277,4.536 C15.535,2.076 18.095,0.399 21.035,0.399 L21.035,0.4 Z M4.79,14.056 L4.78,14.061 L4.785,14.075 L4.789,14.065 L4.794,14.055 L4.79,14.055 L4.79,14.056 Z M37.314,14.054 L37.319,14.064 L37.319,14.056 L37.315,14.054 L37.313,14.054 L37.314,14.054 Z" id="Shape" fill="#FF9900"></path>
                <path d="M2.817,20.812 L2.817,36.714 C2.817,38.37 4.161,39.716 5.817,39.716 L36.295,39.716 C37.955,39.716 39.295,38.372 39.295,36.714 L39.295,20.86 C39.295,17.905 37.01,15.53 34.138,15.39 C36.04,13.258 35.968,9.987 33.922,7.94 C31.872,5.89 28.59,5.823 26.459,7.738 C26.329,4.854 23.949,2.556 21.034,2.556 C18.127,2.556 15.754,4.841 15.612,7.713 C13.48,5.823 10.218,5.9 8.177,7.941 C6.131,9.988 6.06,13.261 7.962,15.391 C5.095,15.539 2.816,17.911 2.816,20.813 L2.817,20.812 Z" id="Shape" fill="#2F2F2F"></path>
                <path d="M5.454,20.824 L5.454,20.798 C5.454,19.208 6.744,17.918 8.334,17.918 C9.104,17.918 9.801,18.218 10.317,18.71 L16.104,18.71 L12.038,14.644 C11.324,14.628 10.614,14.347 10.068,13.801 C8.943,12.678 8.943,10.854 10.068,9.731 C11.193,8.605 13.016,8.605 14.141,9.731 C14.685,10.273 14.966,10.981 14.984,11.693 L19.041,15.75 L19.041,9.96 C18.547,9.442 18.244,8.742 18.244,7.97 C18.244,6.38 19.534,5.09 21.124,5.09 C22.714,5.09 24.004,6.38 24.004,7.97 C24.004,8.74 23.702,9.438 23.212,9.954 L23.212,15.78 L27.294,11.7 C27.31,10.984 27.591,10.274 28.136,9.73 C29.261,8.604 31.084,8.604 32.209,9.73 C33.334,10.853 33.334,12.677 32.209,13.8 C31.665,14.345 30.959,14.626 30.246,14.644 L26.176,18.714 L31.966,18.714 C32.484,18.221 33.186,17.918 33.956,17.918 C35.546,17.918 36.836,19.208 36.836,20.798 L36.836,20.824 L5.456,20.824 L5.454,20.824 Z" id="Shape" fill="#FAFAFA"></path>
                <g id="Group" transform="translate(4.442395, 22.000000)" fill="#FAFAFA">
                    <path d="M5.71402797,9.62 C2.83926286,9.62 0.0909124949,7.49 0.0909124949,4.898 C0.0909124949,2.304 2.55131814,0.201 5.58761322,0.201 C8.6239083,0.201 11.0854845,2.305 11.0854845,4.899 L8.02109721,4.899 C8.02109721,3.749 6.93252573,2.819 5.58644271,2.819 C4.24387122,2.819 3.15412923,3.749 3.15412923,4.899 C3.15412923,5.913 4.09638734,7.001 5.58644271,7.001 C8.8931249,7.001 11.0843139,9.104 11.0843139,11.698 C11.0843139,14.291 8.62273779,16.394 5.58644271,16.394 C2.55014764,16.394 0.089741988,14.291 0.089741988,11.698 L3.15295873,11.698 C3.15295873,12.846 4.24153021,13.778 5.58527221,13.778 C6.92901421,13.778 8.0199267,12.846 8.0199267,11.698 C8.0199267,10.59 7.27782528,9.621 5.71168696,9.621 L5.71402797,9.62 Z M11.3137333,0.327 L15.1085169,16.262 L18.1003327,16.262 L22.0660103,0.324 L19.0741945,0.324 L16.6898718,10.184 L14.2903325,0.324 L11.3149038,0.327 L11.3137333,0.327 Z M22.2462684,4.694 C22.3750242,2.194 24.7862685,0.201 27.7429691,0.201 C30.737126,0.201 33.1741215,2.248 33.2384993,4.793 L30.1741121,4.793 C30.1097342,3.693 29.0469139,2.82 27.7441396,2.82 C26.4799921,2.82 25.4417524,3.64 25.3211902,4.694 L25.3235312,11.782 C25.449946,12.828 26.4858446,13.644 27.7441396,13.644 C28.982536,13.644 30.0032181,12.854 30.157725,11.831 L30.1389969,9.578 L27.802665,9.578 L27.802665,7.028 L33.2396699,7.028 L33.2396699,11.832 C33.0722874,14.302 30.6762596,16.264 27.7453101,16.264 C24.8377708,16.264 22.4569597,14.334 22.2603145,11.894 L22.2486094,4.696 L22.2462684,4.694 Z" id="Shape"></path>
                </g>
            </g>
        </g>
    </g>
</svg>