<?xml version="1.0" encoding="UTF-8"?>
<svg width="89px" height="61px" viewBox="0 0 89 61" version="1.1" xmlns="http://www.w3.org/2000/svg" xmlns:xlink="http://www.w3.org/1999/xlink">
    <!-- Generator: Sketch 50.2 (55047) - http://www.bohemiancoding.com/sketch -->
    <title>uiux</title>
    <desc>Created with Sketch.</desc>
    <defs></defs>
    <g id="Page-1" stroke="none" stroke-width="1" fill="none" fill-rule="evenodd">
        <g id="Actual" transform="translate(-21.000000, -16.000000)">
            <g id="uiux" transform="translate(38.832246, 26.459350)">
                <path d="M28.8371746,0.892537376 L49.6062733,9.15296811 C51.2421053,9.80358262 52.3157438,11.3860376 52.3157438,13.146505 L52.3157438,27.9436623 C52.3157438,29.7041297 51.2421053,31.2865846 49.6062733,31.9371991 L27.9704966,40.5423311 C26.9504637,40.9480257 25.8138549,40.9480257 24.793822,40.5423311 L18.0962895,37.8785417 L28.8371746,0.892537376 Z" id="Combined-Shape" fill="#46B4AB"></path>
                <path d="M28.8371746,0.892537376 L18.0962895,37.8785417 L3.15804534,31.9371991 C1.52221333,31.2865846 0.44857481,29.7041297 0.44857481,27.9436623 L0.44857481,13.146505 C0.44857481,11.3860376 1.52221333,9.80358262 3.15804534,9.15296811 L24.793822,0.547836195 C25.8138549,0.142141573 26.9504637,0.142141573 27.9704966,0.547836195 L28.8371746,0.892537376 Z" id="Combined-Shape" fill="#447F99"></path>
                <g id="uiux-copy" transform="translate(3.075741, 12.761756)" fill="#FFFFFF">
                    <path d="M14.8380162,0.392758435 C15.8963637,0.392758435 16.7543239,1.25071859 16.7543239,2.30906608 C16.7543239,3.36741356 15.8963637,4.22537372 14.8380162,4.22537372 C13.7796687,4.22537372 12.9217086,3.36741356 12.9217086,2.30906608 C12.9217086,1.25071859 13.7796687,0.392758435 14.8380162,0.392758435 Z M14.8380162,5.06139009 C15.8963637,5.06139009 16.7543239,5.91935024 16.7543239,6.97769773 L16.7543239,13.1660022 C16.7543239,14.2243497 15.8963637,15.0823098 14.8380162,15.0823098 C13.7796687,15.0823098 12.9217086,14.2243497 12.9217086,13.1660022 L12.9217086,6.97769773 C12.9217086,5.91935024 13.7796687,5.06139009 14.8380162,5.06139009 Z M3.87715155,9.33552743 C3.87715155,10.5954634 4.56201098,11.2518351 5.79937706,11.2518351 C7.03674313,11.2518351 7.70976683,10.5954634 7.70976683,9.33552743 C7.70976683,8.49557014 7.70976683,6.15341636 7.70976683,2.30906608 C7.70976683,1.25071859 8.56772699,0.392758435 9.62607448,0.392758435 C10.684422,0.392758435 11.5423821,1.25071859 11.5423821,2.30906608 C11.5423821,5.2566407 11.5423821,7.81171756 11.5423821,9.97429664 C11.5423821,13.2181653 8.88970234,15.0844504 5.79937706,15.0844504 C2.70905177,15.0844504 0.0445362704,13.1398712 0.0445362704,9.97429664 C0.0445362704,7.86391359 0.0445362704,5.30883674 0.0445362704,2.30906608 C0.0445362704,1.25071859 0.902496425,0.392758435 1.96084391,0.392758435 C3.0191914,0.392758435 3.87715155,1.25071859 3.87715155,2.30906608 C3.87715155,6.15341636 3.87715155,8.49557014 3.87715155,9.33552743 Z" id="Combined-Shape"></path>
                    <path d="M41.048146,4.92994764 L44.0115865,1.2446914 C44.7258305,0.346047918 45.9352584,0.0898813149 46.7129195,0.672527276 C47.4905806,1.25517324 47.5419904,2.45599559 46.8277465,3.35463907 L43.3045665,7.73597251 L46.8277465,12.117306 C47.5419904,13.0159494 47.4905806,14.2167718 46.7129195,14.7994177 C45.9352584,15.3820637 44.7258305,15.1258971 44.0115865,14.2272536 L41.048146,10.5419974 L38.0847055,14.2272536 C37.3704616,15.1258971 36.1610336,15.3820637 35.3833725,14.7994177 C34.6057114,14.2167718 34.5543016,13.0159494 35.2685455,12.117306 L38.7917255,7.73597251 L35.2685455,3.35463907 C34.5543016,2.45599559 34.6057114,1.25517324 35.3833725,0.672527276 C36.1610336,0.0898813149 37.3704616,0.346047918 38.0847055,1.2446914 L41.048146,4.92994764 Z M26.7275596,9.3333869 C26.7275596,10.5933228 27.412419,11.2496945 28.6497851,11.2496945 C29.8871512,11.2496945 30.5601749,10.5933228 30.5601749,9.3333869 C30.5601749,8.49342961 30.5601749,6.15127583 30.5601749,2.30692555 C30.5601749,1.24857806 31.418135,0.390617904 32.4764825,0.390617904 C33.53483,0.390617904 34.3927901,1.24857806 34.3927901,2.30692555 C34.3927901,5.25450017 34.3927901,7.80957703 34.3927901,9.97215611 C34.3927901,13.2160247 31.7401104,15.0823098 28.6497851,15.0823098 C25.5594598,15.0823098 22.8949443,13.1377307 22.8949443,9.97215611 C22.8949443,7.86177306 22.8949443,5.30669621 22.8949443,2.30692555 C22.8949443,1.24857806 23.7529045,0.390617904 24.8112519,0.390617904 C25.8695994,0.390617904 26.7275596,1.24857806 26.7275596,2.30692555 C26.7275596,6.15127583 26.7275596,8.49342961 26.7275596,9.3333869 Z" id="Combined-Shape"></path>
                </g>
            </g>
        </g>
    </g>
</svg>