<?xml version="1.0" encoding="UTF-8"?>
<svg width="88px" height="60px" viewBox="0 0 88 60" version="1.1" xmlns="http://www.w3.org/2000/svg" xmlns:xlink="http://www.w3.org/1999/xlink">
    <!-- Generator: Sketch 50.2 (55047) - http://www.bohemiancoding.com/sketch -->
    <title>webpack</title>
    <desc>Created with Sketch.</desc>
    <defs></defs>
    <g id="Page-1" stroke="none" stroke-width="1" fill="none" fill-rule="evenodd">
        <g id="Artboard-Copy" transform="translate(-299.000000, -202.000000)">
            <g id="cube" transform="translate(322.017433, 208.907493)">
                <path d="M39.4979922,34.8630089 L21.1802057,45.2255192 L21.1802057,37.1554196 L32.5955563,30.8778857 L39.4979922,34.8630089 Z M40.7517882,33.7294103 L34.0491914,29.8596643 L34.0491914,15.9303252 L40.7517882,12.0605792 L40.7517882,33.7294103 Z M1.25379601,34.8630089 L8.15623185,30.8778857 L19.5715825,37.1554196 L19.5715825,45.2255192 L1.25379601,34.8630089 Z M0,33.7294103 L0,12.0605792 L6.70259674,15.9303252 L6.70259674,29.8596643 L0,33.7294103 Z M0.78476453,10.6561851 L19.5715825,0.0283401296 L19.5715825,7.83037469 L7.44283159,14.5002219 L0.78476453,10.6561851 Z M39.9670237,10.6561851 L33.3089566,14.5002219 L21.1802057,7.83037469 L21.1802057,0.0283401296 L39.9670237,10.6561851 Z" id="outer-cube" fill="#8ED5FA"></path>
                <path d="M19.5715825,35.31981 L8.31121996,29.1275073 L8.31121996,16.8590643 L19.5715825,23.3602376 L19.5715825,35.31981 Z M21.1802057,35.31981 L21.1802057,23.3602376 L32.4405682,16.8590643 L32.4405682,29.1275073 L21.1802057,35.31981 Z M9.07119795,15.4403597 L20.3758941,9.22367694 L31.6805902,15.4403597 L20.3758941,21.967129 L9.07119795,15.4403597 Z" id="inner-cube" fill="#1C78C0"></path>
            </g>
        </g>
    </g>
</svg>