<svg xmlns="http://www.w3.org/2000/svg" width="402" height="108" viewBox="0 0 402 108">
  <path fill="#FFF" fill-rule="evenodd" d="M350.52 55.12L350.52 105.43 347.4 105.43 347.4 7.8 370.8 7.8C378.253371 7.8 384.103312 9.85831275 388.35 13.975 392.596688 18.0916873 394.72 23.616632 394.72 30.55 394.72 36.616697 393.311681 41.6649799 390.495 45.695 387.678319 49.7250202 383.88669 52.3899935 379.12 53.69 384.320026 55.1633407 388.284986 58.0233121 391.015 62.27 393.745014 66.5166879 395.11 71.3266398 395.11 76.7L395.11 105.43 391.99 105.43 391.99 76.7C391.99 73.6666515 391.491672 70.850013 390.495 68.25 389.498328 65.649987 388.090009 63.3750098 386.27 61.425 384.449991 59.4749903 382.218347 57.9366723 379.575 56.81 376.931653 55.6833277 374.006683 55.12 370.8 55.12L350.52 55.12zM370.8 52.26C374.266684 52.26 377.321653 51.6966723 379.965 50.57 382.608347 49.4433277 384.818324 47.9050097 386.595 45.955 388.371676 44.0049902 389.714995 41.7083465 390.625 39.065 391.535005 36.4216534 391.99 33.5833485 391.99 30.55 391.99 24.5699701 390.148352 19.7600182 386.465 16.12 382.781648 12.4799818 377.560034 10.66 370.8 10.66L350.52 10.66 350.52 52.26 370.8 52.26zM389.65 53.69C393.463352 56.290013 396.301657 59.5833134 398.165 63.57 400.028343 67.5566866 400.96 71.9333095 400.96 76.7L400.96 105.43 397.97 105.43 397.97 76.7C397.97 71.7599753 396.951677 67.361686 394.915 63.505 392.878323 59.6483141 389.650022 56.3766801 385.23 53.69 389.650022 51.1766541 392.769991 48.0350189 394.59 44.265 396.410009 40.4949812 397.32 35.9233602 397.32 30.55 397.32 22.4032926 394.958357 16.0766892 390.235 11.57 385.511643 7.0633108 379.033375 4.81 370.8 4.81L344.54 4.81 344.54 105.43 341.68 105.43 341.68 1.82 370.8 1.82C379.813378 1.82 386.963307 4.26830885 392.25 9.165 397.536693 14.0616912 400.18 21.1899532 400.18 30.55 400.18 36.616697 399.226676 41.4483154 397.32 45.045 395.413324 48.6416847 392.856683 51.5233225 389.65 53.69zM370.8 58.24C376.606696 58.24 381.113317 59.8649837 384.32 63.115 387.526683 66.3650162 389.13 70.8933043 389.13 76.7L389.13 105.43 386.27 105.43 386.27 76.7C386.27 72.0199766 384.905014 68.2283478 382.175 65.325 379.444986 62.4216521 375.653358 60.97 370.8 60.97L356.37 60.97 356.37 105.43 353.38 105.43 353.38 58.24 370.8 58.24zM353.38 13.65L370.8 13.65C376.78003 13.65 381.329984 15.1666515 384.45 18.2 387.570016 21.2333485 389.13 25.349974 389.13 30.55 389.13 36.7900312 387.440017 41.4916508 384.06 44.655 380.679983 47.8183491 376.260027 49.4 370.8 49.4L353.38 49.4 353.38 13.65zM370.8 46.41C375.306689 46.41 379.033319 45.1316794 381.98 42.575 384.926681 40.0183205 386.4 36.0100273 386.4 30.55 386.4 25.8699766 385.035014 22.3816781 382.305 20.085 379.574986 17.7883218 375.740025 16.64 370.8 16.64L356.37 16.64 356.37 46.41 370.8 46.41zM329.79 75.66L332.65 75.66 332.65 78.26C332.65 82.5066879 331.891674 86.4066489 330.375 89.96 328.858326 93.5133511 326.778347 96.589987 324.135 99.19 321.491653 101.790013 318.371685 103.804993 314.775 105.235 311.178315 106.665007 307.343354 107.38 303.27 107.38 299.196646 107.38 295.361685 106.665007 291.765 105.235 288.168315 103.804993 285.02668 101.790013 282.34 99.19 279.65332 96.589987 277.551674 93.5133511 276.035 89.96 274.518326 86.4066489 273.76 82.5066879 273.76 78.26L273.76 29.12C273.76 24.8733121 274.518326 20.9516847 276.035 17.355 277.551674 13.7583154 279.65332 10.6816795 282.34 8.125 285.02668 5.56832055 288.168315 3.57500715 291.765 2.145 295.361685.71499285 299.196646 5.68434189e-14 303.27 5.68434189e-14 307.343354 5.68434189e-14 311.178315.71499285 314.775 2.145 318.371685 3.57500715 321.491653 5.56832055 324.135 8.125 326.778347 10.6816795 328.858326 13.7583154 330.375 17.355 331.891674 20.9516847 332.65 24.8733121 332.65 29.12L332.65 32.11 329.79 32.11 329.79 29.12C329.79 25.1333134 329.031674 21.5366827 327.515 18.33 325.998326 15.1233173 324.005012 12.3933446 321.535 10.14 319.064988 7.8866554 316.248349 6.13167295 313.085 4.875 309.921651 3.61832705 306.650017 2.99 303.27 2.99 299.889983 2.99 296.596683 3.61832705 293.39 4.875 290.183317 6.13167295 287.345012 7.8866554 284.875 10.14 282.404988 12.3933446 280.411674 15.1233173 278.895 18.33 277.378326 21.5366827 276.62 25.1333134 276.62 29.12L276.62 78.26C276.62 82.1600195 277.378326 85.7133173 278.895 88.92 280.411674 92.1266827 282.404988 94.8783219 284.875 97.175 287.345012 99.4716782 290.183317 101.226661 293.39 102.44 296.596683 103.653339 299.889983 104.26 303.27 104.26 306.650017 104.26 309.921651 103.653339 313.085 102.44 316.248349 101.226661 319.064988 99.4716782 321.535 97.175 324.005012 94.8783219 325.998326 92.1266827 327.515 88.92 329.031674 85.7133173 329.79 82.1600195 329.79 78.26L329.79 75.66zM282.73 52.39L313.54 52.39 313.54 55.25 282.73 55.25 282.73 78.26C282.73 81.2066814 283.228328 83.9149876 284.225 86.385 285.221672 88.8550123 286.629991 90.9999909 288.45 92.82 290.270009 94.6400091 292.436654 96.0483283 294.95 97.045 297.463346 98.0416716 300.236651 98.54 303.27 98.54 306.216681 98.54 308.946654 98.0416716 311.46 97.045 313.973346 96.0483283 316.139991 94.6400091 317.96 92.82 319.780009 90.9999909 321.209995 88.8550123 322.25 86.385 323.290005 83.9149876 323.81 81.2066814 323.81 78.26L323.81 75.66 326.8 75.66 326.8 78.26C326.8 81.726684 326.150006 84.8683192 324.85 87.685 323.549993 90.5016807 321.795011 92.9283231 319.585 94.965 317.374989 97.0016768 314.861681 98.5833277 312.045 99.71 309.228319 100.836672 306.303348 101.4 303.27 101.4 300.236651 101.4 297.311681 100.836672 294.495 99.71 291.678319 98.5833277 289.165011 97.0016768 286.955 94.965 284.744989 92.9283231 282.96834 90.5016807 281.625 87.685 280.28166 84.8683192 279.61 81.726684 279.61 78.26L279.61 29.12C279.61 25.653316 280.28166 22.4900143 281.625 19.63 282.96834 16.7699857 284.744989 14.3216768 286.955 12.285 289.165011 10.2483231 291.678319 8.6666723 294.495 7.54 297.311681 6.4133277 300.236651 5.85 303.27 5.85 306.303348 5.85 309.228319 6.4133277 312.045 7.54 314.861681 8.6666723 317.374989 10.2483231 319.585 12.285 321.795011 14.3216768 323.549993 16.7699857 324.85 19.63 326.150006 22.4900143 326.8 25.653316 326.8 29.12L326.8 32.11 323.81 32.11 323.81 29.12C323.81 26.1733186 323.290005 23.4433459 322.25 20.93 321.209995 18.4166541 319.780009 16.2716755 317.96 14.495 316.139991 12.7183244 313.973346 11.3316716 311.46 10.335 308.946654 9.33832835 306.216681 8.84 303.27 8.84 300.236651 8.84 297.463346 9.33832835 294.95 10.335 292.436654 11.3316716 290.270009 12.7183244 288.45 14.495 286.629991 16.2716755 285.221672 18.4166541 284.225 20.93 283.228328 23.4433459 282.73 26.1733186 282.73 29.12L282.73 52.39zM288.45 46.41L313.54 46.41 313.54 49.53 285.59 49.53 285.59 29.12C285.59 26.4333199 286.066662 24.0283439 287.02 21.905 287.973338 19.781656 289.273325 17.9616742 290.92 16.445 292.566675 14.9283257 294.451656 13.7800039 296.575 13 298.698344 12.2199961 300.929988 11.83 303.27 11.83 305.610012 11.83 307.81999 12.2199961 309.9 13 311.98001 13.7800039 313.843325 14.9283257 315.49 16.445 317.136675 17.9616742 318.436662 19.781656 319.39 21.905 320.343338 24.0283439 320.82 26.4333199 320.82 29.12L320.82 32.11 317.96 32.11 317.96 29.12C317.96 24.5266437 316.638347 20.9733459 313.995 18.46 311.351653 15.9466541 307.776689 14.69 303.27 14.69 298.676644 14.69 295.058347 15.9466541 292.415 18.46 289.771653 20.9733459 288.45 24.5266437 288.45 29.12L288.45 46.41zM317.96 75.66L320.82 75.66 320.82 78.26C320.82 80.9466801 320.343338 83.351656 319.39 85.475 318.436662 87.5983439 317.136675 89.3966593 315.49 90.87 313.843325 92.3433407 311.98001 93.4699961 309.9 94.25 307.81999 95.0300039 305.610012 95.42 303.27 95.42 300.929988 95.42 298.698344 95.0300039 296.575 94.25 294.451656 93.4699961 292.566675 92.3433407 290.92 90.87 289.273325 89.3966593 287.973338 87.5983439 287.02 85.475 286.066662 83.351656 285.59 80.9466801 285.59 78.26L285.59 58.24 313.54 58.24 313.54 61.23 288.45 61.23 288.45 78.26C288.45 82.7666892 289.771653 86.2766541 292.415 88.79 295.058347 91.3033459 298.676644 92.56 303.27 92.56 307.776689 92.56 311.351653 91.3033459 313.995 88.79 316.638347 86.2766541 317.96 82.7666892 317.96 78.26L317.96 75.66zM221.27 105.43L218.41 105.43 218.41 57.98 235.7 57.98C239.080017 57.98 242.373317 57.2650072 245.58 55.835 248.786683 54.4049928 251.668321 52.4766788 254.225 50.05 256.781679 47.6233212 258.818326 44.8066827 260.335 41.6 261.851674 38.3933173 262.61 34.9700182 262.61 31.33 262.61 27.7766489 261.916674 24.3966827 260.53 21.19 259.143326 17.9833173 257.236679 15.1666788 254.81 12.74 252.383321 10.3133212 249.52335 8.38500715 246.23 6.955 242.93665 5.52499285 239.426685 4.81 235.7 4.81L209.57 4.81 209.57 105.43 206.58 105.43 206.58 1.82 235.7 1.82C239.860021 1.82 243.738315 2.5999922 247.335 4.16 250.931685 5.7200078 254.07332 7.8433199 256.76 10.53 259.44668 13.2166801 261.569992 16.3583154 263.13 19.955 264.690008 23.5516847 265.47 27.3433134 265.47 31.33 265.47 35.4033537 264.646675 39.2383154 263 42.835 261.353325 46.4316847 259.143347 49.5733199 256.37 52.26 253.596653 54.9466801 250.433351 57.0483258 246.88 58.565 243.326649 60.0816743 239.60002 60.84 235.7 60.84L221.27 60.84 221.27 105.43zM215.42 105.43L212.43 105.43 212.43 7.8 235.7 7.8C239.080017 7.8 242.221652 8.4066606 245.125 9.62 248.028348 10.8333394 250.563323 12.5016561 252.73 14.625 254.896678 16.748344 256.586661 19.2399857 257.8 22.1 259.013339 24.9600143 259.62 28.0366502 259.62 31.33 259.62 34.796684 258.970007 37.9599857 257.67 40.82 256.369994 43.6800143 254.615011 46.1499896 252.405 48.23 250.194989 50.3100104 247.638348 51.9349942 244.735 53.105 241.831652 54.2750059 238.820016 54.86 235.7 54.86L215.42 54.86 215.42 105.43zM235.7 52C238.646681 52 241.398321 51.4583387 243.955 50.375 246.511679 49.2916612 248.743324 47.8183426 250.65 45.955 252.556676 44.0916573 254.051661 41.9033459 255.135 39.39 256.218339 36.8766541 256.76 34.1900143 256.76 31.33 256.76 28.5566528 256.218339 25.9133459 255.135 23.4 254.051661 20.8866541 252.578343 18.6983426 250.715 16.835 248.851657 14.9716573 246.620013 13.4766723 244.02 12.35 241.419987 11.2233277 238.646681 10.66 235.7 10.66L215.42 10.66 215.42 52 235.7 52zM218.54 49.4L218.54 13.65 235.7 13.65C238.300013 13.65 240.704989 14.1049954 242.915 15.015 245.125011 15.9250045 247.031659 17.1599922 248.635 18.72 250.238341 20.2800078 251.494995 22.1433225 252.405 24.31 253.315005 26.4766775 253.77 28.8166541 253.77 31.33 253.77 36.9633615 252.05835 41.3616508 248.635 44.525 245.21165 47.6883491 240.900026 49.27 235.7 49.27L218.54 49.4zM235.7 46.02C240.293356 46.02 243.954986 44.720013 246.685 42.12 249.415014 39.519987 250.78 35.9233563 250.78 31.33 250.78 26.7366437 249.415014 23.140013 246.685 20.54 243.954986 17.939987 240.293356 16.64 235.7 16.64L221.27 16.64 221.27 46.02 235.7 46.02zM146.52 55.12L146.52 105.43 143.4 105.43 143.4 7.8 166.8 7.8C174.253371 7.8 180.103312 9.85831275 184.35 13.975 188.596688 18.0916873 190.72 23.616632 190.72 30.55 190.72 36.616697 189.311681 41.6649799 186.495 45.695 183.678319 49.7250202 179.886691 52.3899935 175.12 53.69 180.320026 55.1633407 184.284986 58.0233121 187.015 62.27 189.745014 66.5166879 191.11 71.3266398 191.11 76.7L191.11 105.43 187.99 105.43 187.99 76.7C187.99 73.6666515 187.491672 70.850013 186.495 68.25 185.498328 65.649987 184.090009 63.3750098 182.27 61.425 180.449991 59.4749903 178.218347 57.9366723 175.575 56.81 172.931653 55.6833277 170.006683 55.12 166.8 55.12L146.52 55.12zM166.8 52.26C170.266684 52.26 173.321653 51.6966723 175.965 50.57 178.608347 49.4433277 180.818324 47.9050097 182.595 45.955 184.371676 44.0049902 185.714995 41.7083465 186.625 39.065 187.535005 36.4216534 187.99 33.5833485 187.99 30.55 187.99 24.5699701 186.148352 19.7600182 182.465 16.12 178.781648 12.4799818 173.560034 10.66 166.8 10.66L146.52 10.66 146.52 52.26 166.8 52.26zM185.65 53.69C189.463352 56.290013 192.301657 59.5833134 194.165 63.57 196.028343 67.5566866 196.96 71.9333095 196.96 76.7L196.96 105.43 193.97 105.43 193.97 76.7C193.97 71.7599753 192.951677 67.361686 190.915 63.505 188.878323 59.6483141 185.650022 56.3766801 181.23 53.69 185.650022 51.1766541 188.769991 48.0350189 190.59 44.265 192.410009 40.4949812 193.32 35.9233602 193.32 30.55 193.32 22.4032926 190.958357 16.0766892 186.235 11.57 181.511643 7.0633108 175.033375 4.81 166.8 4.81L140.54 4.81 140.54 105.43 137.68 105.43 137.68 1.82 166.8 1.82C175.813378 1.82 182.963307 4.26830885 188.25 9.165 193.536693 14.0616912 196.18 21.1899532 196.18 30.55 196.18 36.616697 195.226676 41.4483154 193.32 45.045 191.413324 48.6416847 188.856683 51.5233225 185.65 53.69zM166.8 58.24C172.606696 58.24 177.113317 59.8649837 180.32 63.115 183.526683 66.3650162 185.13 70.8933043 185.13 76.7L185.13 105.43 182.27 105.43 182.27 76.7C182.27 72.0199766 180.905014 68.2283478 178.175 65.325 175.444986 62.4216521 171.653358 60.97 166.8 60.97L152.37 60.97 152.37 105.43 149.38 105.43 149.38 58.24 166.8 58.24zM149.38 13.65L166.8 13.65C172.78003 13.65 177.329984 15.1666515 180.45 18.2 183.570016 21.2333485 185.13 25.349974 185.13 30.55 185.13 36.7900312 183.440017 41.4916508 180.06 44.655 176.679983 47.8183491 172.260027 49.4 166.8 49.4L149.38 49.4 149.38 13.65zM166.8 46.41C171.306689 46.41 175.033319 45.1316794 177.98 42.575 180.926681 40.0183205 182.4 36.0100273 182.4 30.55 182.4 25.8699766 181.035014 22.3816781 178.305 20.085 175.574986 17.7883218 171.740025 16.64 166.8 16.64L152.37 16.64 152.37 46.41 166.8 46.41zM128.19 105.43L125.2 105.43 125.2 28.86C125.2 25.4799831 124.463341 22.2083492 122.99 19.045 121.516659 15.8816509 119.545012 13.0866788 117.075 10.66 114.604988 8.2333212 111.766683 6.2833407 108.56 4.81 105.353317 3.3366593 102.016684 2.6 98.55 2.6 95.2566502 2.6 92.0066827 3.31499285 88.8 4.745 85.5933173 6.17500715 82.7550124 8.1033212 80.285 10.53 77.8149877 12.9566788 75.8216743 15.7516509 74.305 18.915 72.7883258 22.0783492 72.03 25.393316 72.03 28.86L72.03 105.43 69.17 105.43 69.17 29.12C69.17 24.9599792 69.9283258 21.1033511 71.445 17.55 72.9616743 13.9966489 75.0633199 10.920013 77.75 8.32 80.4366801 5.719987 83.5349825 3.6833407 87.045 2.21 90.5550176.7366593 94.3466463 1.42108547e-13 98.42 1.42108547e-13 102.493354 1.42108547e-13 106.328315.75832575 109.925 2.275 113.521685 3.79167425 116.684986 5.87165345 119.415 8.515 122.145014 11.1583466 124.289992 14.2566489 125.85 17.81 127.410008 21.3633511 128.19 25.1333134 128.19 29.12L128.19 105.43zM122.21 105.43L119.35 105.43 119.35 55.12 78.01 55.12 78.01 105.43 75.02 105.43 75.02 29.51C75.02 26.1299831 75.6483271 22.9450149 76.905 19.955 78.161673 16.964985 79.8516561 14.3866775 81.975 12.22 84.098344 10.0533225 86.5899857 8.34167295 89.45 7.085 92.3100143 5.82832705 95.2999844 5.2 98.42 5.2 101.800017 5.2 104.919986 5.8499935 107.78 7.15 110.640014 8.4500065 113.153323 10.2049889 115.32 12.415 117.486678 14.625011 119.176661 17.1599857 120.39 20.02 121.603339 22.8800143 122.21 25.8266515 122.21 28.86L122.21 105.43zM119.35 52.26L119.35 29.51C119.35 26.5633186 118.786672 23.8116794 117.66 21.255 116.533328 18.6983205 115.038343 16.4666762 113.175 14.56 111.311657 12.6533238 109.101679 11.1583387 106.545 10.075 103.988321 8.99166125 101.280014 8.45 98.42 8.45 95.6466528 8.45 93.0250124 8.99166125 90.555 10.075 88.0849877 11.1583387 85.9183427 12.6316573 84.055 14.495 82.1916574 16.3583426 80.7183388 18.5249876 79.635 20.995 78.5516612 23.4650123 78.01 26.0866528 78.01 28.86L78.01 52.26 119.35 52.26zM116.23 49.27L81 49.27 81 29.51C81 26.909987 81.433329 24.5050111 82.3 22.295 83.166671 20.084989 84.3799922 18.1783414 85.94 16.575 87.5000078 14.9716587 89.3416561 13.6933381 91.465 12.74 93.588344 11.7866619 95.9066541 11.31 98.42 11.31 101.020013 11.31 103.403323 11.7866619 105.57 12.74 107.736678 13.6933381 109.621659 14.9716587 111.225 16.575 112.828341 18.1783414 114.063329 20.084989 114.93 22.295 115.796671 24.5050111 116.23 26.909987 116.23 29.51L116.23 49.27zM113.37 46.28L113.37 28.86C113.37 24.2666437 111.983347 20.6916795 109.21 18.135 106.436653 15.5783206 102.840022 14.3 98.42 14.3 93.9133108 14.3 90.360013 15.6433199 87.76 18.33 85.159987 21.0166801 83.86 24.526645 83.86 28.86L83.86 46.28 113.37 46.28zM116.23 105.43L113.37 105.43 113.37 61.1 83.86 61.1 83.86 105.43 81 105.43 81 58.24 116.23 58.24 116.23 105.43zM47.85 105.43L44.86 105.43 44.86 61.23 15.35 61.23 15.35 105.43 12.49 105.43 12.49 58.24 47.85 58.24 47.85 105.43zM59.55 105.43L56.69 105.43 56.69 1.82 59.55 1.82 59.55 105.43zM47.85 49.53L12.49 49.53 12.49 1.82 15.35 1.82 15.35 46.41 44.86 46.41 44.86 1.82 47.85 1.82 47.85 49.53zM53.7 105.43L50.84 105.43 50.84 55.25 9.63 55.25 9.63 105.43 6.51 105.43 6.51 1.82 9.63 1.82 9.63 52.39 50.84 52.39 50.84 1.82 53.7 1.82 53.7 105.43zM3.65 105.43L.66 105.43.66 1.82 3.65 1.82 3.65 105.43z"/>
</svg>
