<svg xmlns="http://www.w3.org/2000/svg" width="293" height="108" viewBox="0 0 293 108">
  <path fill="#FFF" fill-rule="evenodd" d="M249.47 81.38C249.47 86.580026 250.921652 90.7399844 253.825 93.86 256.728348 96.9800156 260.909973 98.54 266.37 98.54 271.74336 98.54 275.881652 96.9800156 278.785 93.86 281.688348 90.7399844 283.14 86.580026 283.14 81.38L283.14 1.82 286.13 1.82 286.13 81.38C286.13 87.2733628 284.461683 92.0833147 281.125 95.81 277.788317 99.5366853 272.870032 101.4 266.37 101.4 261.689977 101.4 257.63835 100.251678 254.215 97.955 250.79165 95.6583219 248.733337 92.5166866 248.04 88.53 246.913328 92.9500221 244.790016 96.1999896 241.67 98.28 238.549984 100.36001 234.563358 101.4 229.71 101.4 223.209967 101.4 218.270017 99.5366853 214.89 95.81 211.509983 92.0833147 209.82 87.2733628 209.82 81.38L209.82 1.82 212.94 1.82 212.94 81.38C212.94 86.580026 214.369986 90.7399844 217.23 93.86 220.090014 96.9800156 224.249973 98.54 229.71 98.54 235.08336 98.54 239.243319 96.9800156 242.19 93.86 245.136681 90.7399844 246.61 86.580026 246.61 81.38L246.61 1.82 249.47 1.82 249.47 81.38zM206.83 81.38C206.83 84.6733498 207.306662 87.7283193 208.26 90.545 209.213338 93.3616808 210.643324 95.7883232 212.55 97.825 214.456676 99.8616769 216.839986 101.443328 219.7 102.57 222.560014 103.696672 225.896648 104.26 229.71 104.26 237.163371 104.26 243.229977 101.486694 247.91 95.94 252.590023 101.486694 258.743295 104.26 266.37 104.26 270.183352 104.26 273.519986 103.696672 276.38 102.57 279.240014 101.443328 281.601657 99.8616769 283.465 97.825 285.328343 95.7883232 286.736662 93.3616808 287.69 90.545 288.643338 87.7283193 289.12 84.6733498 289.12 81.38L289.12 1.82 291.98 1.82 291.98 81.38C291.98 85.1933524 291.460005 88.6816509 290.42 91.845 289.379995 95.0083492 287.798344 97.7383219 285.675 100.035 283.551656 102.331678 280.886683 104.129994 277.68 105.43 274.473317 106.730007 270.703355 107.38 266.37 107.38 262.296646 107.38 258.743348 106.730007 255.71 105.43 252.676652 104.129994 250.12001 102.44001 248.04 100.36 246.046657 102.44001 243.511682 104.129994 240.435 105.43 237.358318 106.730007 233.783354 107.38 229.71 107.38 225.289978 107.38 221.476683 106.730007 218.27 105.43 215.063317 104.129994 212.398344 102.331678 210.275 100.035 208.151656 97.7383219 206.570005 95.0083492 205.53 91.845 204.489995 88.6816509 203.97 85.1933524 203.97 81.38L203.97 1.82 206.83 1.82 206.83 81.38zM218.66 81.38C218.66 85.1933524 219.69999 88.0099909 221.78 89.83 223.86001 91.6500091 226.503317 92.56 229.71 92.56 232.830016 92.56 235.451656 91.6500091 237.575 89.83 239.698344 88.0099909 240.76 85.1933524 240.76 81.38L240.76 1.82 243.62 1.82 243.62 81.38C243.62 85.8000221 242.341679 89.2449877 239.785 91.715 237.228321 94.1850124 233.870021 95.42 229.71 95.42 225.549979 95.42 222.191679 94.1850124 219.635 91.715 217.078321 89.2449877 215.8 85.8000221 215.8 81.38L215.8 1.82 218.66 1.82 218.66 81.38zM255.19 81.38C255.19 85.1933524 256.251656 88.0099909 258.375 89.83 260.498344 91.6500091 263.163317 92.56 266.37 92.56 269.490016 92.56 272.08999 91.6500091 274.17 89.83 276.25001 88.0099909 277.29 85.1933524 277.29 81.38L277.29 1.82 280.15 1.82 280.15 81.38C280.15 85.8000221 278.893346 89.2449877 276.38 91.715 273.866654 94.1850124 270.530021 95.42 266.37 95.42 262.209979 95.42 258.830013 94.1850124 256.23 91.715 253.629987 89.2449877 252.33 85.8000221 252.33 81.38L252.33 1.82 255.19 1.82 255.19 81.38zM192.79 75.66L195.65 75.66 195.65 78.26C195.65 82.5066879 194.891674 86.4066489 193.375 89.96 191.858326 93.5133511 189.778347 96.589987 187.135 99.19 184.491653 101.790013 181.371685 103.804993 177.775 105.235 174.178315 106.665007 170.343354 107.38 166.27 107.38 162.196646 107.38 158.361685 106.665007 154.765 105.235 151.168315 103.804993 148.02668 101.790013 145.34 99.19 142.65332 96.589987 140.551674 93.5133511 139.035 89.96 137.518326 86.4066489 136.76 82.5066879 136.76 78.26L136.76 29.12C136.76 24.8733121 137.518326 20.9516847 139.035 17.355 140.551674 13.7583154 142.65332 10.6816795 145.34 8.125 148.02668 5.56832055 151.168315 3.57500715 154.765 2.145 158.361685.71499285 162.196646 0 166.27 0 170.343354 0 174.178315.71499285 177.775 2.145 181.371685 3.57500715 184.491653 5.56832055 187.135 8.125 189.778347 10.6816795 191.858326 13.7583154 193.375 17.355 194.891674 20.9516847 195.65 24.8733121 195.65 29.12L195.65 32.11 192.79 32.11 192.79 29.12C192.79 25.1333134 192.031674 21.5366827 190.515 18.33 188.998326 15.1233173 187.005012 12.3933446 184.535 10.14 182.064988 7.8866554 179.248349 6.13167295 176.085 4.875 172.921651 3.61832705 169.650017 2.99 166.27 2.99 162.889983 2.99 159.596683 3.61832705 156.39 4.875 153.183317 6.13167295 150.345012 7.8866554 147.875 10.14 145.404988 12.3933446 143.411674 15.1233173 141.895 18.33 140.378326 21.5366827 139.62 25.1333134 139.62 29.12L139.62 78.26C139.62 82.1600195 140.378326 85.7133173 141.895 88.92 143.411674 92.1266827 145.404988 94.8783219 147.875 97.175 150.345012 99.4716782 153.183317 101.226661 156.39 102.44 159.596683 103.653339 162.889983 104.26 166.27 104.26 169.650017 104.26 172.921651 103.653339 176.085 102.44 179.248349 101.226661 182.064988 99.4716782 184.535 97.175 187.005012 94.8783219 188.998326 92.1266827 190.515 88.92 192.031674 85.7133173 192.79 82.1600195 192.79 78.26L192.79 75.66zM145.73 52.39L176.54 52.39 176.54 55.25 145.73 55.25 145.73 78.26C145.73 81.2066814 146.228328 83.9149876 147.225 86.385 148.221672 88.8550123 149.629991 90.9999909 151.45 92.82 153.270009 94.6400091 155.436654 96.0483283 157.95 97.045 160.463346 98.0416716 163.236651 98.54 166.27 98.54 169.216681 98.54 171.946654 98.0416716 174.46 97.045 176.973346 96.0483283 179.139991 94.6400091 180.96 92.82 182.780009 90.9999909 184.209995 88.8550123 185.25 86.385 186.290005 83.9149876 186.81 81.2066814 186.81 78.26L186.81 75.66 189.8 75.66 189.8 78.26C189.8 81.726684 189.150006 84.8683192 187.85 87.685 186.549993 90.5016807 184.795011 92.9283231 182.585 94.965 180.374989 97.0016768 177.861681 98.5833277 175.045 99.71 172.228319 100.836672 169.303348 101.4 166.27 101.4 163.236651 101.4 160.311681 100.836672 157.495 99.71 154.678319 98.5833277 152.165011 97.0016768 149.955 94.965 147.744989 92.9283231 145.96834 90.5016807 144.625 87.685 143.28166 84.8683192 142.61 81.726684 142.61 78.26L142.61 29.12C142.61 25.653316 143.28166 22.4900143 144.625 19.63 145.96834 16.7699857 147.744989 14.3216768 149.955 12.285 152.165011 10.2483231 154.678319 8.6666723 157.495 7.54 160.311681 6.4133277 163.236651 5.85 166.27 5.85 169.303348 5.85 172.228319 6.4133277 175.045 7.54 177.861681 8.6666723 180.374989 10.2483231 182.585 12.285 184.795011 14.3216768 186.549993 16.7699857 187.85 19.63 189.150006 22.4900143 189.8 25.653316 189.8 29.12L189.8 32.11 186.81 32.11 186.81 29.12C186.81 26.1733186 186.290005 23.4433459 185.25 20.93 184.209995 18.4166541 182.780009 16.2716755 180.96 14.495 179.139991 12.7183244 176.973346 11.3316716 174.46 10.335 171.946654 9.33832835 169.216681 8.84 166.27 8.84 163.236651 8.84 160.463346 9.33832835 157.95 10.335 155.436654 11.3316716 153.270009 12.7183244 151.45 14.495 149.629991 16.2716755 148.221672 18.4166541 147.225 20.93 146.228328 23.4433459 145.73 26.1733186 145.73 29.12L145.73 52.39zM151.45 46.41L176.54 46.41 176.54 49.53 148.59 49.53 148.59 29.12C148.59 26.4333199 149.066662 24.0283439 150.02 21.905 150.973338 19.781656 152.273325 17.9616742 153.92 16.445 155.566675 14.9283257 157.451656 13.7800039 159.575 13 161.698344 12.2199961 163.929988 11.83 166.27 11.83 168.610012 11.83 170.81999 12.2199961 172.9 13 174.98001 13.7800039 176.843325 14.9283257 178.49 16.445 180.136675 17.9616742 181.436662 19.781656 182.39 21.905 183.343338 24.0283439 183.82 26.4333199 183.82 29.12L183.82 32.11 180.96 32.11 180.96 29.12C180.96 24.5266437 179.638347 20.9733459 176.995 18.46 174.351653 15.9466541 170.776689 14.69 166.27 14.69 161.676644 14.69 158.058347 15.9466541 155.415 18.46 152.771653 20.9733459 151.45 24.5266437 151.45 29.12L151.45 46.41zM180.96 75.66L183.82 75.66 183.82 78.26C183.82 80.9466801 183.343338 83.351656 182.39 85.475 181.436662 87.5983439 180.136675 89.3966593 178.49 90.87 176.843325 92.3433407 174.98001 93.4699961 172.9 94.25 170.81999 95.0300039 168.610012 95.42 166.27 95.42 163.929988 95.42 161.698344 95.0300039 159.575 94.25 157.451656 93.4699961 155.566675 92.3433407 153.92 90.87 152.273325 89.3966593 150.973338 87.5983439 150.02 85.475 149.066662 83.351656 148.59 80.9466801 148.59 78.26L148.59 58.24 176.54 58.24 176.54 61.23 151.45 61.23 151.45 78.26C151.45 82.7666892 152.771653 86.2766541 155.415 88.79 158.058347 91.3033459 161.676644 92.56 166.27 92.56 170.776689 92.56 174.351653 91.3033459 176.995 88.79 179.638347 86.2766541 180.96 82.7666892 180.96 78.26L180.96 75.66zM115.65 53.69C119.463352 56.290013 122.301657 59.5833134 124.165 63.57 126.028343 67.5566866 126.96 71.9333095 126.96 76.7L126.96 105.43 123.97 105.43 123.97 76.7C123.97 71.7599753 122.951677 67.361686 120.915 63.505 118.878323 59.6483141 115.650022 56.3766801 111.23 53.69 115.650022 51.1766541 118.769991 48.0350189 120.59 44.265 122.410009 40.4949812 123.32 35.9233602 123.32 30.55 123.32 22.4032926 120.958357 16.0766892 116.235 11.57 111.511643 7.0633108 105.033375 4.81 96.8 4.81L70.54 4.81 70.54 105.43 67.68 105.43 67.68 1.82 96.8 1.82C105.813378 1.82 112.963307 4.26830885 118.25 9.165 123.536693 14.0616912 126.18 21.1899532 126.18 30.55 126.18 36.616697 125.226676 41.4483154 123.32 45.045 121.413324 48.6416847 118.856683 51.5233225 115.65 53.69zM76.52 55.12L76.52 105.43 73.4 105.43 73.4 7.8 96.8 7.8C104.253371 7.8 110.103312 9.85831275 114.35 13.975 118.596688 18.0916873 120.72 23.616632 120.72 30.55 120.72 36.616697 119.311681 41.6649799 116.495 45.695 113.678319 49.7250202 109.88669 52.3899935 105.12 53.69 110.320026 55.1633407 114.284986 58.0233121 117.015 62.27 119.745014 66.5166879 121.11 71.3266398 121.11 76.7L121.11 105.43 117.99 105.43 117.99 76.7C117.99 73.6666515 117.491672 70.850013 116.495 68.25 115.498328 65.649987 114.090009 63.3750098 112.27 61.425 110.449991 59.4749903 108.218347 57.9366723 105.575 56.81 102.931653 55.6833277 100.006683 55.12 96.8 55.12L76.52 55.12zM96.8 52.26C100.266684 52.26 103.321653 51.6966723 105.965 50.57 108.608347 49.4433277 110.818324 47.9050097 112.595 45.955 114.371676 44.0049902 115.714995 41.7083465 116.625 39.065 117.535005 36.4216534 117.99 33.5833485 117.99 30.55 117.99 24.5699701 116.148352 19.7600182 112.465 16.12 108.781648 12.4799818 103.560034 10.66 96.8 10.66L76.52 10.66 76.52 52.26 96.8 52.26zM79.38 13.65L96.8 13.65C102.78003 13.65 107.329984 15.1666515 110.45 18.2 113.570016 21.2333485 115.13 25.349974 115.13 30.55 115.13 36.7900312 113.440017 41.4916509 110.06 44.655 106.679983 47.8183492 102.260027 49.4 96.8 49.4L79.38 49.4 79.38 13.65zM96.8 46.41C101.306689 46.41 105.033319 45.1316794 107.98 42.575 110.926681 40.0183205 112.4 36.0100273 112.4 30.55 112.4 25.8699766 111.035014 22.3816781 108.305 20.085 105.574986 17.7883218 101.740025 16.64 96.8 16.64L82.37 16.64 82.37 46.41 96.8 46.41zM96.8 58.24C102.606696 58.24 107.113317 59.8649837 110.32 63.115 113.526683 66.3650162 115.13 70.8933043 115.13 76.7L115.13 105.43 112.27 105.43 112.27 76.7C112.27 72.0199766 110.905014 68.2283478 108.175 65.325 105.444986 62.4216521 101.653358 60.97 96.8 60.97L82.37 60.97 82.37 105.43 79.38 105.43 79.38 58.24 96.8 58.24zM58.76 75.53C58.76 79.863355 58.0233407 83.8499818 56.55 87.49 55.0766593 91.1300182 53.040013 94.2716535 50.44 96.915 47.839987 99.5583466 44.7850175 101.638326 41.275 103.155 37.7649824 104.671674 33.9300208 105.43 29.77 105.43L0 105.43 0 1.82 29.77 1.82C33.9300208 1.82 37.7649824 2.57832575 41.275 4.095 44.7850175 5.61167425 47.839987 7.69165345 50.44 10.335 53.040013 12.9783466 55.0766593 16.1416483 56.55 19.825 58.0233407 23.5083518 58.76 27.4733121 58.76 31.72L58.76 75.53zM2.86 102.44L28.99 102.44C32.8033524 102.44 36.3566502 101.76834 39.65 100.425 42.9433498 99.0816599 45.7816548 97.2183452 48.165 94.835 50.5483453 92.4516547 52.4333264 89.6783491 53.82 86.515 55.2066736 83.3516508 55.9 79.9500182 55.9 76.31L55.9 30.94C55.9 27.2999818 55.2066736 23.8983491 53.82 20.735 52.4333264 17.5716508 50.5483453 14.8200117 48.165 12.48 45.7816548 10.1399883 42.9433498 8.2766736 39.65 6.89 36.3566502 5.5033264 32.8033524 4.81 28.99 4.81L2.86 4.81 2.86 102.44zM53.04 76.31C53.04 79.4300156 52.4333394 82.3983193 51.22 85.215 50.0066606 88.0316808 48.338344 90.5016561 46.215 92.625 44.0916561 94.748344 41.6216808 96.4166606 38.805 97.63 35.9883193 98.8433394 32.9766827 99.45 29.77 99.45L5.72 99.45 5.72 7.8 29.77 7.8C32.9766827 7.8 35.9883193 8.4066606 38.805 9.62 41.6216808 10.8333394 44.0916561 12.5016561 46.215 14.625 48.338344 16.748344 50.0066606 19.2183193 51.22 22.035 52.4333394 24.8516808 53.04 27.8199844 53.04 30.94L53.04 76.31zM8.84 96.59L28.99 96.59C32.0233485 96.59 34.8183206 96.0700052 37.375 95.03 39.9316795 93.9899948 42.1633238 92.5383426 44.07 90.675 45.9766762 88.8116573 47.4499948 86.580013 48.49 83.98 49.5300052 81.379987 50.05 78.5633485 50.05 75.53L50.05 31.72C50.05 28.6866515 49.5300052 25.870013 48.49 23.27 47.4499948 20.669987 45.9766762 18.4383426 44.07 16.575 42.1633238 14.7116573 39.9316795 13.2600052 37.375 12.22 34.8183206 11.1799948 32.0233485 10.66 28.99 10.66L8.84 10.66 8.84 96.59zM47.06 75.53C47.06 78.3033472 46.626671 80.794989 45.76 83.005 44.893329 85.2150111 43.6800078 87.0999922 42.12 88.66 40.5599922 90.2200078 38.718344 91.433329 36.595 92.3 34.4716561 93.166671 32.1966788 93.6 29.77 93.6L11.7 93.6 11.7 13.65 29.77 13.65C32.1966788 13.65 34.4716561 14.083329 36.595 14.95 38.718344 15.816671 40.5599922 17.0516587 42.12 18.655 43.6800078 20.2583414 44.893329 22.164989 45.76 24.375 46.626671 26.5850111 47.06 29.0333199 47.06 31.72L47.06 75.53zM14.69 90.74L28.99 90.74C33.5833563 90.74 37.2449864 89.4833459 39.975 86.97 42.7050137 84.4566541 44.07 80.9033563 44.07 76.31L44.07 30.94C44.07 26.3466437 42.7050137 22.8150123 39.975 20.345 37.2449864 17.8749876 33.5833563 16.64 28.99 16.64L14.69 16.64 14.69 90.74z"/>
</svg>
