<svg width="246" height="146" viewBox="0 0 246 146" fill="none" xmlns="http://www.w3.org/2000/svg">
<g style="mix-blend-mode:luminosity">
<mask id="mask0" mask-type="alpha" maskUnits="userSpaceOnUse" x="0" y="0" width="246" height="146">
<path d="M246 0H0V146H246V0Z" fill="white"/>
</mask>
<g mask="url(#mask0)">
<g style="mix-blend-mode:hard-light">
<path d="M246 0H0V146H246V0Z" fill="white" fill-opacity="0.5"/>
</g>
<g style="mix-blend-mode:hard-light">
<path fill-rule="evenodd" clip-rule="evenodd" d="M128 134H246V146H128V134ZM128 111H246V123H128V111ZM128 88H246V99H128V88Z" fill="#CF142B" fill-opacity="0.5"/>
</g>
<g style="mix-blend-mode:hard-light">
<path fill-rule="evenodd" clip-rule="evenodd" d="M246 0H128V77H246V0ZM132.42 67.893L135.87 67.5193L137.186 64.3494L138.59 67.4636L142.05 67.6964L139.467 69.9958L140.288 73.309L137.288 71.6156L134.336 73.4306L135.064 70.0852L132.42 67.893ZM154.87 67.5193L151.42 67.893L154.064 70.0852L153.336 73.4306L156.288 71.6156L159.288 73.309L158.467 69.9958L161.05 67.6964L157.59 67.4636L156.186 64.3494L154.87 67.5193ZM171.42 67.893L174.87 67.5193L176.186 64.3494L177.59 67.4636L181.05 67.6964L178.467 69.9958L179.288 73.309L176.288 71.6156L173.336 73.4306L174.064 70.0852L171.42 67.893ZM194.87 67.5193L191.42 67.893L194.064 70.0852L193.336 73.4306L196.288 71.6156L199.288 73.309L198.467 69.9958L201.05 67.6964L197.59 67.4636L196.186 64.3494L194.87 67.5193ZM211.42 67.893L214.87 67.5193L216.186 64.3494L217.59 67.4636L221.05 67.6964L218.467 69.9958L219.288 73.309L216.288 71.6156L213.336 73.4306L214.064 70.0852L211.42 67.893ZM234.87 67.5193L231.42 67.893L234.064 70.0852L233.336 73.4306L236.288 71.6156L239.288 73.309L238.467 69.9958L241.05 67.6964L237.59 67.4636L236.186 64.3494L234.87 67.5193ZM142.42 59.893L145.87 59.5193L147.186 56.3494L148.59 59.4636L152.05 59.6964L149.467 61.9958L150.288 65.309L147.288 63.6156L144.336 65.4306L145.064 62.0852L142.42 59.893ZM135.87 51.5193L132.42 51.893L135.064 54.0852L134.336 57.4306L137.288 55.6156L140.288 57.309L139.467 53.9958L142.05 51.6964L138.59 51.4636L137.186 48.3494L135.87 51.5193ZM142.42 44.893L145.87 44.5193L147.186 41.3494L148.59 44.4636L152.05 44.6964L149.467 46.9958L150.288 50.309L147.288 48.6156L144.336 50.4306L145.064 47.0852L142.42 44.893ZM135.87 36.5193L132.42 36.893L135.064 39.0852L134.336 42.4306L137.288 40.6156L140.288 42.309L139.467 38.9958L142.05 36.6964L138.59 36.4636L137.186 33.3494L135.87 36.5193ZM142.42 28.893L145.87 28.5193L147.186 25.3494L148.59 28.4636L152.05 28.6964L149.467 30.9958L150.288 34.309L147.288 32.6156L144.336 34.4306L145.064 31.0852L142.42 28.893ZM135.87 20.5193L132.42 20.893L135.064 23.0852L134.336 26.4306L137.288 24.6156L140.288 26.309L139.467 22.9958L142.05 20.6964L138.59 20.4636L137.186 17.3494L135.87 20.5193ZM142.42 13.893L145.87 13.5193L147.186 10.3494L148.59 13.4636L152.05 13.6964L149.467 15.9958L150.288 19.309L147.288 17.6156L144.336 19.4306L145.064 16.0852L142.42 13.893ZM135.87 5.51927L132.42 5.89301L135.064 8.08518L134.336 11.4306L137.288 9.61555L140.288 11.309L139.467 7.99579L142.05 5.69644L138.59 5.46357L137.186 2.34941L135.87 5.51927ZM161.42 59.893L164.87 59.5193L166.186 56.3494L167.59 59.4636L171.05 59.6964L168.467 61.9958L169.288 65.309L166.288 63.6156L163.336 65.4306L164.064 62.0852L161.42 59.893ZM154.87 51.5193L151.42 51.893L154.064 54.0852L153.336 57.4306L156.288 55.6156L159.288 57.309L158.467 53.9958L161.05 51.6964L157.59 51.4636L156.186 48.3494L154.87 51.5193ZM161.42 44.893L164.87 44.5193L166.186 41.3494L167.59 44.4636L171.05 44.6964L168.467 46.9958L169.288 50.309L166.288 48.6156L163.336 50.4306L164.064 47.0852L161.42 44.893ZM154.87 36.5193L151.42 36.893L154.064 39.0852L153.336 42.4306L156.288 40.6156L159.288 42.309L158.467 38.9958L161.05 36.6964L157.59 36.4636L156.186 33.3494L154.87 36.5193ZM161.42 28.893L164.87 28.5193L166.186 25.3494L167.59 28.4636L171.05 28.6964L168.467 30.9958L169.288 34.309L166.288 32.6156L163.336 34.4306L164.064 31.0852L161.42 28.893ZM154.87 20.5193L151.42 20.893L154.064 23.0852L153.336 26.4306L156.288 24.6156L159.288 26.309L158.467 22.9958L161.05 20.6964L157.59 20.4636L156.186 17.3494L154.87 20.5193ZM161.42 13.893L164.87 13.5193L166.186 10.3494L167.59 13.4636L171.05 13.6964L168.467 15.9958L169.288 19.309L166.288 17.6156L163.336 19.4306L164.064 16.0852L161.42 13.893ZM154.87 5.51927L151.42 5.89301L154.064 8.08518L153.336 11.4306L156.288 9.61555L159.288 11.309L158.467 7.99579L161.05 5.69644L157.59 5.46357L156.186 2.34941L154.87 5.51927ZM181.42 59.893L184.87 59.5193L186.186 56.3494L187.59 59.4636L191.05 59.6964L188.467 61.9958L189.288 65.309L186.288 63.6156L183.336 65.4306L184.064 62.0852L181.42 59.893ZM174.87 51.5193L171.42 51.893L174.064 54.0852L173.336 57.4306L176.288 55.6156L179.288 57.309L178.467 53.9958L181.05 51.6964L177.59 51.4636L176.186 48.3494L174.87 51.5193ZM211.42 51.893L214.87 51.5193L216.186 48.3494L217.59 51.4636L221.05 51.6964L218.467 53.9958L219.288 57.309L216.288 55.6156L213.336 57.4306L214.064 54.0852L211.42 51.893ZM194.87 51.5193L191.42 51.893L194.064 54.0852L193.336 57.4306L196.288 55.6156L199.288 57.309L198.467 53.9958L201.05 51.6964L197.59 51.4636L196.186 48.3494L194.87 51.5193ZM221.42 59.893L224.87 59.5193L226.186 56.3494L227.59 59.4636L231.05 59.6964L228.467 61.9958L229.288 65.309L226.288 63.6156L223.336 65.4306L224.064 62.0852L221.42 59.893ZM204.87 59.5193L201.42 59.893L204.064 62.0852L203.336 65.4306L206.288 63.6156L209.288 65.309L208.467 61.9958L211.05 59.6964L207.59 59.4636L206.186 56.3494L204.87 59.5193ZM171.42 5.89301L174.87 5.51927L176.186 2.34941L177.59 5.46357L181.05 5.69644L178.467 7.99579L179.288 11.309L176.288 9.61555L173.336 11.4306L174.064 8.08518L171.42 5.89301ZM184.87 13.5193L181.42 13.893L184.064 16.0852L183.336 19.4306L186.288 17.6156L189.288 19.309L188.467 15.9958L191.05 13.6964L187.59 13.4636L186.186 10.3494L184.87 13.5193ZM171.42 20.893L174.87 20.5193L176.186 17.3494L177.59 20.4636L181.05 20.6964L178.467 22.9958L179.288 26.309L176.288 24.6156L173.336 26.4306L174.064 23.0852L171.42 20.893ZM184.87 28.5193L181.42 28.893L184.064 31.0852L183.336 34.4306L186.288 32.6156L189.288 34.309L188.467 30.9958L191.05 28.6964L187.59 28.4636L186.186 25.3494L184.87 28.5193ZM171.42 36.893L174.87 36.5193L176.186 33.3494L177.59 36.4636L181.05 36.6964L178.467 38.9958L179.288 42.309L176.288 40.6156L173.336 42.4306L174.064 39.0852L171.42 36.893ZM184.87 44.5193L181.42 44.893L184.064 47.0852L183.336 50.4306L186.288 48.6156L189.288 50.309L188.467 46.9958L191.05 44.6964L187.59 44.4636L186.186 41.3494L184.87 44.5193ZM231.42 51.893L234.87 51.5193L236.186 48.3494L237.59 51.4636L241.05 51.6964L238.467 53.9958L239.288 57.309L236.288 55.6156L233.336 57.4306L234.064 54.0852L231.42 51.893ZM194.87 36.5193L191.42 36.893L194.064 39.0852L193.336 42.4306L196.288 40.6156L199.288 42.309L198.467 38.9958L201.05 36.6964L197.59 36.4636L196.186 33.3494L194.87 36.5193ZM191.42 5.89301L194.87 5.51927L196.186 2.34941L197.59 5.46357L201.05 5.69644L198.467 7.99579L199.288 11.309L196.288 9.61555L193.336 11.4306L194.064 8.08518L191.42 5.89301ZM194.87 20.5193L191.42 20.893L194.064 23.0852L193.336 26.4306L196.288 24.6156L199.288 26.309L198.467 22.9958L201.05 20.6964L197.59 20.4636L196.186 17.3494L194.87 20.5193ZM221.42 44.893L224.87 44.5193L226.186 41.3494L227.59 44.4636L231.05 44.6964L228.467 46.9958L229.288 50.309L226.288 48.6156L223.336 50.4306L224.064 47.0852L221.42 44.893ZM204.87 44.5193L201.42 44.893L204.064 47.0852L203.336 50.4306L206.288 48.6156L209.288 50.309L208.467 46.9958L211.05 44.6964L207.59 44.4636L206.186 41.3494L204.87 44.5193ZM201.42 13.893L204.87 13.5193L206.186 10.3494L207.59 13.4636L211.05 13.6964L208.467 15.9958L209.288 19.309L206.288 17.6156L203.336 19.4306L204.064 16.0852L201.42 13.893ZM204.87 28.5193L201.42 28.893L204.064 31.0852L203.336 34.4306L206.288 32.6156L209.288 34.309L208.467 30.9958L211.05 28.6964L207.59 28.4636L206.186 25.3494L204.87 28.5193ZM231.42 36.893L234.87 36.5193L236.186 33.3494L237.59 36.4636L241.05 36.6964L238.467 38.9958L239.288 42.309L236.288 40.6156L233.336 42.4306L234.064 39.0852L231.42 36.893ZM214.87 36.5193L211.42 36.893L214.064 39.0852L213.336 42.4306L216.288 40.6156L219.288 42.309L218.467 38.9958L221.05 36.6964L217.59 36.4636L216.186 33.3494L214.87 36.5193ZM211.42 5.89301L214.87 5.51927L216.186 2.34941L217.59 5.46357L221.05 5.69644L218.467 7.99579L219.288 11.309L216.288 9.61555L213.336 11.4306L214.064 8.08518L211.42 5.89301ZM214.87 20.5193L211.42 20.893L214.064 23.0852L213.336 26.4306L216.288 24.6156L219.288 26.309L218.467 22.9958L221.05 20.6964L217.59 20.4636L216.186 17.3494L214.87 20.5193ZM231.42 5.89301L234.87 5.51927L236.186 2.34941L237.59 5.46357L241.05 5.69644L238.467 7.99579L239.288 11.309L236.288 9.61555L233.336 11.4306L234.064 8.08518L231.42 5.89301ZM224.87 13.5193L221.42 13.893L224.064 16.0852L223.336 19.4306L226.288 17.6156L229.288 19.309L228.467 15.9958L231.05 13.6964L227.59 13.4636L226.186 10.3494L224.87 13.5193ZM231.42 20.893L234.87 20.5193L236.186 17.3494L237.59 20.4636L241.05 20.6964L238.467 22.9958L239.288 26.309L236.288 24.6156L233.336 26.4306L234.064 23.0852L231.42 20.893ZM224.87 28.5193L221.42 28.893L224.064 31.0852L223.336 34.4306L226.288 32.6156L229.288 34.309L228.467 30.9958L231.05 28.6964L227.59 28.4636L226.186 25.3494L224.87 28.5193Z" fill="#00247D" fill-opacity="0.5"/>
</g>
<g style="mix-blend-mode:hard-light">
<path fill-rule="evenodd" clip-rule="evenodd" d="M26.8918 0H100.263V44.6387L26.8918 0ZM0 16.3201V48.6667H53.2077L0 16.3201ZM0 97.3333V129.922L53.3041 97.3333H0ZM26.8918 146H100.263V101.299L26.8918 146Z" fill="#00247D" fill-opacity="0.5"/>
</g>
<g style="mix-blend-mode:hard-light">
<path d="M62.1139 49L0.0104813 10.9352L0 0L0.0556928 8.0393e-05L80 49H62.1139ZM98 97L17.7487 146L0 145.921L80.0931 97H98ZM128 146H108.023V87.6H0V58.4H108.023V0H128V146Z" fill="#CF142B" fill-opacity="0.5"/>
</g>
</g>
</g>
</svg>
