<svg xmlns="http://www.w3.org/2000/svg" xmlns:xlink="http://www.w3.org/1999/xlink" width="246" height="146" viewBox="0 0 246 146">
  <defs>
    <rect id="brit-amer_flag_bourbon-a" width="246" height="146"/>
  </defs>
  <g fill="none" fill-rule="evenodd">
    <mask id="brit-amer_flag_bourbon-b" fill="#fff">
      <use xlink:href="#brit-amer_flag_bourbon-a"/>
    </mask>
    <use fill="#D8D8D8" xlink:href="#brit-amer_flag_bourbon-a"/>
    <g mask="url(#brit-amer_flag_bourbon-b)">
      <g transform="translate(128)">
        <g fill="#AF4300" transform="translate(0 88)">
          <polygon points="0 46 119 46 119 58 0 58"/>
          <polygon points="0 23 119 23 119 35 0 35"/>
          <polygon points="0 0 119 0 119 11 0 11"/>
        </g>
        <rect width="119" height="77" fill="#500A00"/>
        <g fill="#FFF" transform="translate(4 2)">
          <polygon points=".348 66.265 3.758 65.623 4.823 62.36 6.466 65.355 9.933 65.317 7.538 67.811 8.615 71.05 5.492 69.596 2.691 71.636 3.155 68.244" transform="rotate(4.479 5.14 66.998)"/>
          <polygon points="19.348 66.265 22.758 65.623 23.823 62.36 25.466 65.355 28.933 65.317 26.538 67.811 27.615 71.05 24.492 69.596 21.691 71.636 22.155 68.244" transform="rotate(4.479 24.14 66.998)"/>
          <polygon points="39.348 66.265 42.758 65.623 43.823 62.36 45.466 65.355 48.933 65.317 46.538 67.811 47.615 71.05 44.492 69.596 41.691 71.636 42.155 68.244" transform="rotate(4.479 44.14 66.998)"/>
          <polygon points="59.348 66.265 62.758 65.623 63.823 62.36 65.466 65.355 68.933 65.317 66.538 67.811 67.615 71.05 64.492 69.596 61.691 71.636 62.155 68.244" transform="rotate(4.479 64.14 66.998)"/>
          <polygon points="79.348 66.265 82.758 65.623 83.823 62.36 85.466 65.355 88.933 65.317 86.538 67.811 87.615 71.05 84.492 69.596 81.691 71.636 82.155 68.244" transform="rotate(4.479 84.14 66.998)"/>
          <polygon points="99.348 66.265 102.758 65.623 103.823 62.36 105.466 65.355 108.933 65.317 106.538 67.811 107.615 71.05 104.492 69.596 101.691 71.636 102.155 68.244" transform="rotate(4.479 104.14 66.998)"/>
          <polygon points="10.348 58.265 13.758 57.623 14.823 54.36 16.466 57.355 19.933 57.317 17.538 59.811 18.615 63.05 15.492 61.596 12.691 63.636 13.155 60.244" transform="rotate(4.479 15.14 58.998)"/>
          <polygon points=".348 50.265 3.758 49.623 4.823 46.36 6.466 49.355 9.933 49.317 7.538 51.811 8.615 55.05 5.492 53.596 2.691 55.636 3.155 52.244" transform="rotate(4.479 5.14 50.998)"/>
          <polygon points="10.348 43.265 13.758 42.623 14.823 39.36 16.466 42.355 19.933 42.317 17.538 44.811 18.615 48.05 15.492 46.596 12.691 48.636 13.155 45.244" transform="rotate(4.479 15.14 43.998)"/>
          <polygon points=".348 35.265 3.758 34.623 4.823 31.36 6.466 34.355 9.933 34.317 7.538 36.811 8.615 40.05 5.492 38.596 2.691 40.636 3.155 37.244" transform="rotate(4.479 5.14 35.998)"/>
          <polygon points="10.348 27.265 13.758 26.623 14.823 23.36 16.466 26.355 19.933 26.317 17.538 28.811 18.615 32.05 15.492 30.596 12.691 32.636 13.155 29.244" transform="rotate(4.479 15.14 27.998)"/>
          <polygon points=".348 19.265 3.758 18.623 4.823 15.36 6.466 18.355 9.933 18.317 7.538 20.811 8.615 24.05 5.492 22.596 2.691 24.636 3.155 21.244" transform="rotate(4.479 5.14 19.998)"/>
          <polygon points="10.348 12.265 13.758 11.623 14.823 8.36 16.466 11.355 19.933 11.317 17.538 13.811 18.615 17.05 15.492 15.596 12.691 17.636 13.155 14.244" transform="rotate(4.479 15.14 12.998)"/>
          <polygon points=".348 4.265 3.758 3.623 4.823 .36 6.466 3.355 9.933 3.317 7.538 5.811 8.615 9.05 5.492 7.596 2.691 9.636 3.155 6.244" transform="rotate(4.479 5.14 4.998)"/>
          <polygon points="29.348 58.265 32.758 57.623 33.823 54.36 35.466 57.355 38.933 57.317 36.538 59.811 37.615 63.05 34.492 61.596 31.691 63.636 32.155 60.244" transform="rotate(4.479 34.14 58.998)"/>
          <polygon points="19.348 50.265 22.758 49.623 23.823 46.36 25.466 49.355 28.933 49.317 26.538 51.811 27.615 55.05 24.492 53.596 21.691 55.636 22.155 52.244" transform="rotate(4.479 24.14 50.998)"/>
          <polygon points="29.348 43.265 32.758 42.623 33.823 39.36 35.466 42.355 38.933 42.317 36.538 44.811 37.615 48.05 34.492 46.596 31.691 48.636 32.155 45.244" transform="rotate(4.479 34.14 43.998)"/>
          <polygon points="19.348 35.265 22.758 34.623 23.823 31.36 25.466 34.355 28.933 34.317 26.538 36.811 27.615 40.05 24.492 38.596 21.691 40.636 22.155 37.244" transform="rotate(4.479 24.14 35.998)"/>
          <polygon points="29.348 27.265 32.758 26.623 33.823 23.36 35.466 26.355 38.933 26.317 36.538 28.811 37.615 32.05 34.492 30.596 31.691 32.636 32.155 29.244" transform="rotate(4.479 34.14 27.998)"/>
          <polygon points="19.348 19.265 22.758 18.623 23.823 15.36 25.466 18.355 28.933 18.317 26.538 20.811 27.615 24.05 24.492 22.596 21.691 24.636 22.155 21.244" transform="rotate(4.479 24.14 19.998)"/>
          <polygon points="29.348 12.265 32.758 11.623 33.823 8.36 35.466 11.355 38.933 11.317 36.538 13.811 37.615 17.05 34.492 15.596 31.691 17.636 32.155 14.244" transform="rotate(4.479 34.14 12.998)"/>
          <polygon points="19.348 4.265 22.758 3.623 23.823 .36 25.466 3.355 28.933 3.317 26.538 5.811 27.615 9.05 24.492 7.596 21.691 9.636 22.155 6.244" transform="rotate(4.479 24.14 4.998)"/>
          <polygon points="49.348 58.265 52.758 57.623 53.823 54.36 55.466 57.355 58.933 57.317 56.538 59.811 57.615 63.05 54.492 61.596 51.691 63.636 52.155 60.244" transform="rotate(4.479 54.14 58.998)"/>
          <polygon points="39.348 50.265 42.758 49.623 43.823 46.36 45.466 49.355 48.933 49.317 46.538 51.811 47.615 55.05 44.492 53.596 41.691 55.636 42.155 52.244" transform="rotate(4.479 44.14 50.998)"/>
          <polygon points="79.348 50.265 82.758 49.623 83.823 46.36 85.466 49.355 88.933 49.317 86.538 51.811 87.615 55.05 84.492 53.596 81.691 55.636 82.155 52.244" transform="rotate(4.479 84.14 50.998)"/>
          <polygon points="59.348 50.265 62.758 49.623 63.823 46.36 65.466 49.355 68.933 49.317 66.538 51.811 67.615 55.05 64.492 53.596 61.691 55.636 62.155 52.244" transform="rotate(4.479 64.14 50.998)"/>
          <polygon points="89.348 58.265 92.758 57.623 93.823 54.36 95.466 57.355 98.933 57.317 96.538 59.811 97.615 63.05 94.492 61.596 91.691 63.636 92.155 60.244" transform="rotate(4.479 94.14 58.998)"/>
          <polygon points="69.348 58.265 72.758 57.623 73.823 54.36 75.466 57.355 78.933 57.317 76.538 59.811 77.615 63.05 74.492 61.596 71.691 63.636 72.155 60.244" transform="rotate(4.479 74.14 58.998)"/>
          <polygon points="39.348 4.265 42.758 3.623 43.823 .36 45.466 3.355 48.933 3.317 46.538 5.811 47.615 9.05 44.492 7.596 41.691 9.636 42.155 6.244" transform="rotate(4.479 44.14 4.998)"/>
          <polygon points="49.348 12.265 52.758 11.623 53.823 8.36 55.466 11.355 58.933 11.317 56.538 13.811 57.615 17.05 54.492 15.596 51.691 17.636 52.155 14.244" transform="rotate(4.479 54.14 12.998)"/>
          <polygon points="39.348 19.265 42.758 18.623 43.823 15.36 45.466 18.355 48.933 18.317 46.538 20.811 47.615 24.05 44.492 22.596 41.691 24.636 42.155 21.244" transform="rotate(4.479 44.14 19.998)"/>
          <polygon points="49.348 27.265 52.758 26.623 53.823 23.36 55.466 26.355 58.933 26.317 56.538 28.811 57.615 32.05 54.492 30.596 51.691 32.636 52.155 29.244" transform="rotate(4.479 54.14 27.998)"/>
          <polygon points="39.348 35.265 42.758 34.623 43.823 31.36 45.466 34.355 48.933 34.317 46.538 36.811 47.615 40.05 44.492 38.596 41.691 40.636 42.155 37.244" transform="rotate(4.479 44.14 35.998)"/>
          <polygon points="49.348 43.265 52.758 42.623 53.823 39.36 55.466 42.355 58.933 42.317 56.538 44.811 57.615 48.05 54.492 46.596 51.691 48.636 52.155 45.244" transform="rotate(4.479 54.14 43.998)"/>
          <polygon points="99.348 50.265 102.758 49.623 103.823 46.36 105.466 49.355 108.933 49.317 106.538 51.811 107.615 55.05 104.492 53.596 101.691 55.636 102.155 52.244" transform="rotate(4.479 104.14 50.998)"/>
          <polygon points="59.348 35.265 62.758 34.623 63.823 31.36 65.466 34.355 68.933 34.317 66.538 36.811 67.615 40.05 64.492 38.596 61.691 40.636 62.155 37.244" transform="rotate(4.479 64.14 35.998)"/>
          <polygon points="59.348 4.265 62.758 3.623 63.823 .36 65.466 3.355 68.933 3.317 66.538 5.811 67.615 9.05 64.492 7.596 61.691 9.636 62.155 6.244" transform="rotate(4.479 64.14 4.998)"/>
          <polygon points="59.348 19.265 62.758 18.623 63.823 15.36 65.466 18.355 68.933 18.317 66.538 20.811 67.615 24.05 64.492 22.596 61.691 24.636 62.155 21.244" transform="rotate(4.479 64.14 19.998)"/>
          <polygon points="89.348 43.265 92.758 42.623 93.823 39.36 95.466 42.355 98.933 42.317 96.538 44.811 97.615 48.05 94.492 46.596 91.691 48.636 92.155 45.244" transform="rotate(4.479 94.14 43.998)"/>
          <polygon points="69.348 43.265 72.758 42.623 73.823 39.36 75.466 42.355 78.933 42.317 76.538 44.811 77.615 48.05 74.492 46.596 71.691 48.636 72.155 45.244" transform="rotate(4.479 74.14 43.998)"/>
          <polygon points="69.348 12.265 72.758 11.623 73.823 8.36 75.466 11.355 78.933 11.317 76.538 13.811 77.615 17.05 74.492 15.596 71.691 17.636 72.155 14.244" transform="rotate(4.479 74.14 12.998)"/>
          <polygon points="69.348 27.265 72.758 26.623 73.823 23.36 75.466 26.355 78.933 26.317 76.538 28.811 77.615 32.05 74.492 30.596 71.691 32.636 72.155 29.244" transform="rotate(4.479 74.14 27.998)"/>
          <polygon points="99.348 35.265 102.758 34.623 103.823 31.36 105.466 34.355 108.933 34.317 106.538 36.811 107.615 40.05 104.492 38.596 101.691 40.636 102.155 37.244" transform="rotate(4.479 104.14 35.998)"/>
          <polygon points="79.348 35.265 82.758 34.623 83.823 31.36 85.466 34.355 88.933 34.317 86.538 36.811 87.615 40.05 84.492 38.596 81.691 40.636 82.155 37.244" transform="rotate(4.479 84.14 35.998)"/>
          <polygon points="79.348 4.265 82.758 3.623 83.823 .36 85.466 3.355 88.933 3.317 86.538 5.811 87.615 9.05 84.492 7.596 81.691 9.636 82.155 6.244" transform="rotate(4.479 84.14 4.998)"/>
          <polygon points="79.348 19.265 82.758 18.623 83.823 15.36 85.466 18.355 88.933 18.317 86.538 20.811 87.615 24.05 84.492 22.596 81.691 24.636 82.155 21.244" transform="rotate(4.479 84.14 19.998)"/>
          <polygon points="99.348 4.265 102.758 3.623 103.823 .36 105.466 3.355 108.933 3.317 106.538 5.811 107.615 9.05 104.492 7.596 101.691 9.636 102.155 6.244" transform="rotate(4.479 104.14 4.998)"/>
          <polygon points="89.348 12.265 92.758 11.623 93.823 8.36 95.466 11.355 98.933 11.317 96.538 13.811 97.615 17.05 94.492 15.596 91.691 17.636 92.155 14.244" transform="rotate(4.479 94.14 12.998)"/>
          <polygon points="99.348 19.265 102.758 18.623 103.823 15.36 105.466 18.355 108.933 18.317 106.538 20.811 107.615 24.05 104.492 22.596 101.691 24.636 102.155 21.244" transform="rotate(4.479 104.14 19.998)"/>
          <polygon points="89.348 27.265 92.758 26.623 93.823 23.36 95.466 26.355 98.933 26.317 96.538 28.811 97.615 32.05 94.492 30.596 91.691 32.636 92.155 29.244" transform="rotate(4.479 94.14 27.998)"/>
        </g>
      </g>
      <rect width="127" height="146" fill="#500000"/>
      <path fill="#D8D8D8" fill-rule="nonzero" d="M100.263477,101.299466 L26.8918376,146 L0,146 L5.20233324e-17,129.921853 L53.304142,97.3333333 L4.26325641e-14,97.3333333 L4.26325641e-14,48.6666667 L53.2076572,48.6666667 L1.82081663e-16,16.3201375 L0,0 L26.8918376,5.38197958e-15 L100.263477,44.6387069 L100.263477,0 L128,0 L128,146 L100.263477,146 L100.263477,101.299466 Z"/>
      <path fill="#AF4300" fill-rule="nonzero" d="M62.113941,49 L0.0104812685,10.9351941 L0,0 L0.0556928479,8.03929996e-05 L80,49 L62.113941,49 Z M98,97 L17.7487013,146 L2.84217094e-14,145.92109 L80.0931213,97 L98,97 Z M128,146 L108.022847,146 L108.022847,87.6 L0,87.6 L0,58.4 L108.022847,58.4 L108.022847,0 L128,0 L128,146 Z"/>
    </g>
  </g>
</svg>
