<svg width="42" height="42" viewBox="0 0 42 42" fill="none" xmlns="http://www.w3.org/2000/svg">
<path fill-rule="evenodd" clip-rule="evenodd" d="M1.97456 0.730896H39.6005C40.1539 0.730896 40.6026 1.17957 40.6026 1.73305V39.359C40.6026 39.9124 40.1539 40.3611 39.6005 40.3611H1.97456C1.42109 40.3611 0.972412 39.9124 0.972412 39.359V1.73305C0.972412 1.17957 1.42109 0.730896 1.97456 0.730896Z" fill="#F1D545"/>
<path fill-rule="evenodd" clip-rule="evenodd" d="M20.8323 28.7713C20.8323 29.4561 20.7548 30.1735 20.5999 30.9235C20.445 31.6735 20.1597 32.3624 19.744 32.9901C19.3282 33.6178 18.7494 34.1355 18.0075 34.5431C17.2657 34.9507 16.3078 35.1545 15.1338 35.1545C13.6664 35.1545 12.4436 34.7754 11.4653 34.0173C10.4871 33.2591 9.83488 32.2849 9.50879 31.0947L13.2018 29.8474C13.3159 30.3039 13.5238 30.6708 13.8254 30.9479C14.127 31.2251 14.498 31.3637 14.9382 31.3637C15.623 31.3637 16.0754 31.1273 16.2955 30.6545C16.5157 30.1816 16.6257 29.5621 16.6257 28.7957V17.3744H20.8323V28.7713ZM33.452 21.8745C33.0933 21.4179 32.6245 21.0552 32.0457 20.7861C31.4669 20.5171 30.9085 20.3826 30.3704 20.3826C30.0932 20.3826 29.812 20.4071 29.5267 20.456C29.2413 20.5049 28.9845 20.5986 28.7563 20.7372C28.528 20.8758 28.3364 21.0552 28.1815 21.2753C28.0266 21.4954 27.9492 21.7766 27.9492 22.119C27.9492 22.4125 28.0103 22.6571 28.1326 22.8527C28.2549 23.0484 28.4343 23.2196 28.6707 23.3663C28.9071 23.5131 29.1883 23.6476 29.5144 23.7699C29.8405 23.8922 30.2074 24.0185 30.615 24.149C31.2019 24.3446 31.8134 24.5606 32.4492 24.7971C33.0851 25.0335 33.6639 25.3473 34.1857 25.7386C34.7074 26.13 35.1395 26.615 35.4819 27.1938C35.8243 27.7726 35.9955 28.4941 35.9955 29.3582C35.9955 30.3528 35.8121 31.2129 35.4452 31.9384C35.0783 32.664 34.5851 33.2632 33.9656 33.736C33.346 34.2088 32.6367 34.5594 31.8378 34.7876C31.0389 35.0159 30.2155 35.13 29.3677 35.13C28.1285 35.13 26.9302 34.914 25.7725 34.4819C24.6149 34.0499 23.653 33.4344 22.8866 32.6355L25.6258 29.8474C26.0497 30.3691 26.6081 30.8053 27.3011 31.1558C27.994 31.5064 28.6829 31.6816 29.3677 31.6816C29.6775 31.6816 29.9791 31.649 30.2726 31.5838C30.5661 31.5186 30.8229 31.4126 31.043 31.2659C31.2631 31.1191 31.4384 30.9235 31.5688 30.6789C31.6992 30.4343 31.7645 30.1409 31.7645 29.7985C31.7645 29.4724 31.6829 29.1952 31.5199 28.9669C31.3568 28.7387 31.1245 28.5308 30.8229 28.3433C30.5212 28.1558 30.1462 27.9846 29.6979 27.8297C29.2495 27.6748 28.74 27.5077 28.1693 27.3283C27.615 27.149 27.0728 26.937 26.5429 26.6925C26.013 26.4479 25.5402 26.134 25.1244 25.7509C24.7087 25.3677 24.3744 24.903 24.1217 24.3568C23.869 23.8106 23.7426 23.1462 23.7426 22.3636C23.7426 21.4016 23.9383 20.5783 24.3296 19.8935C24.7209 19.2087 25.2345 18.6462 25.8704 18.206C26.5062 17.7657 27.2236 17.4437 28.0226 17.2399C28.8215 17.0361 29.6286 16.9342 30.4438 16.9342C31.4221 16.9342 32.4207 17.1136 33.4397 17.4723C34.4588 17.831 35.3514 18.3608 36.1178 19.0619L33.452 21.8745Z" fill="#FAFAFA"/>
</svg>
