<svg width="89" height="60" viewBox="0 0 89 60" fill="none" xmlns="http://www.w3.org/2000/svg">
<rect width="543" height="278" transform="translate(-439 -19)" fill="white"/>
<path fill-rule="evenodd" clip-rule="evenodd" d="M26.9746 9.7309H64.6005C65.1539 9.7309 65.6026 10.1796 65.6026 10.733V48.359C65.6026 48.9124 65.1539 49.3611 64.6005 49.3611H26.9746C26.4211 49.3611 25.9724 48.9124 25.9724 48.359V10.733C25.9724 10.1796 26.4211 9.7309 26.9746 9.7309Z" fill="#F1D545"/>
<path fill-rule="evenodd" clip-rule="evenodd" d="M45.8323 37.7713C45.8323 38.4561 45.7548 39.1735 45.5999 39.9235C45.445 40.6735 45.1597 41.3624 44.744 41.9901C44.3282 42.6178 43.7494 43.1355 43.0075 43.5431C42.2657 43.9507 41.3078 44.1545 40.1338 44.1545C38.6664 44.1545 37.4436 43.7754 36.4653 43.0173C35.4871 42.2591 34.8349 41.2849 34.5088 40.0947L38.2018 38.8474C38.3159 39.3039 38.5238 39.6708 38.8254 39.9479C39.127 40.2251 39.498 40.3637 39.9382 40.3637C40.623 40.3637 41.0754 40.1273 41.2955 39.6545C41.5157 39.1816 41.6257 38.5621 41.6257 37.7957V26.3744H45.8323V37.7713ZM58.452 30.8745C58.0933 30.4179 57.6245 30.0552 57.0457 29.7861C56.4669 29.5171 55.9085 29.3826 55.3704 29.3826C55.0932 29.3826 54.812 29.4071 54.5267 29.456C54.2413 29.5049 53.9845 29.5986 53.7563 29.7372C53.528 29.8758 53.3364 30.0552 53.1815 30.2753C53.0266 30.4954 52.9492 30.7766 52.9492 31.119C52.9492 31.4125 53.0103 31.6571 53.1326 31.8527C53.2549 32.0484 53.4343 32.2196 53.6707 32.3663C53.9071 32.5131 54.1883 32.6476 54.5144 32.7699C54.8405 32.8922 55.2074 33.0185 55.615 33.149C56.2019 33.3446 56.8134 33.5606 57.4492 33.7971C58.0851 34.0335 58.6639 34.3473 59.1857 34.7386C59.7074 35.13 60.1395 35.615 60.4819 36.1938C60.8243 36.7726 60.9955 37.4941 60.9955 38.3582C60.9955 39.3528 60.8121 40.2129 60.4452 40.9384C60.0783 41.664 59.5851 42.2632 58.9656 42.736C58.346 43.2088 57.6367 43.5594 56.8378 43.7876C56.0389 44.0159 55.2155 44.13 54.3677 44.13C53.1285 44.13 51.9302 43.914 50.7725 43.4819C49.6149 43.0499 48.653 42.4344 47.8866 41.6355L50.6258 38.8474C51.0497 39.3691 51.6081 39.8053 52.3011 40.1558C52.994 40.5064 53.6829 40.6816 54.3677 40.6816C54.6775 40.6816 54.9791 40.649 55.2726 40.5838C55.5661 40.5186 55.8229 40.4126 56.043 40.2659C56.2631 40.1191 56.4384 39.9235 56.5688 39.6789C56.6992 39.4343 56.7645 39.1409 56.7645 38.7985C56.7645 38.4724 56.6829 38.1952 56.5199 37.9669C56.3568 37.7387 56.1245 37.5308 55.8229 37.3433C55.5212 37.1558 55.1462 36.9846 54.6979 36.8297C54.2495 36.6748 53.74 36.5077 53.1693 36.3283C52.615 36.149 52.0728 35.937 51.5429 35.6925C51.013 35.4479 50.5402 35.134 50.1244 34.7509C49.7087 34.3677 49.3744 33.903 49.1217 33.3568C48.869 32.8106 48.7426 32.1462 48.7426 31.3636C48.7426 30.4016 48.9383 29.5783 49.3296 28.8935C49.7209 28.2087 50.2345 27.6462 50.8704 27.206C51.5062 26.7657 52.2236 26.4437 53.0226 26.2399C53.8215 26.0361 54.6286 25.9342 55.4438 25.9342C56.4221 25.9342 57.4207 26.1136 58.4397 26.4723C59.4588 26.831 60.3514 27.3608 61.1178 28.0619L58.452 30.8745Z" fill="#FAFAFA"/>
</svg>
