<svg height="79" viewBox="0 0 101 79" width="101" xmlns="http://www.w3.org/2000/svg"><g fill="none" fill-rule="evenodd" transform="translate(.024886 -.143505)"><path d="m55.2609375 1.71037742 39.8000111 15.82953788c3.1347596 1.2467784 5.1921824 4.2792511 5.1921824 7.6528507v28.3559258c0 3.3735997-2.0574228 6.4060723-5.1921824 7.6528508l-41.4608338 16.4900918c-1.9546984.7774363-4.1327919.7774363-6.0874903 0l-12.8345419-5.1046435z" fill="#73baf1"/><path d="m55.2609375 1.71037742-20.5828549 70.87661348-28.62629185-11.3854483c-3.13475963-1.2467785-5.1921828-4.2792511-5.1921828-7.6528508v-28.3559258c0-3.3735996 2.05742317-6.4060723 5.1921828-7.6528507l41.46083375-16.49009186c1.9546984-.77743626 4.1327919-.77743626 6.0874903 0z" fill="#1e7ec9"/><g fill="#fff" transform="translate(5.89407 24.455467)"><path d="m27.7619866.75264653h1.3444752c1.6568543 0 3 1.34314575 3 3v1.34447521c0 1.65685425-1.3431457 3-3 3h-1.3444752c-1.6568542 0-3-1.34314575-3-3v-1.34447521c0-1.65685425 1.3431458-3 3-3zm0 8.94654092h1.3444752c1.6568543 0 3 1.34314575 3 2.99999995v13.2031788c0 1.6568543-1.3431457 3-3 3h-1.3444752c-1.6568542 0-3-1.3431457-3-3v-13.2031788c0-1.6568542 1.3431458-2.99999995 3-2.99999995zm-20.33216614 8.19056785c0 2.4144266 1.31240229 3.6722377 3.68357804 3.6722377 2.3711758 0 3.6608972-1.2578111 3.6608972-3.6722377 0-1.6096177 0-6.0979081 0-13.46487117 0-2.02812082 1.6441167-3.6722376 3.6722376-3.6722376 2.0281208 0 3.6722376 1.64411678 3.6722376 3.6722376v14.68895037c0 6.2162547-5.0833542 9.7926337-11.0053724 9.7926337-5.92201818 0-11.02805324-3.7264146-11.02805324-9.7926337 0-4.044146 0-8.9404628 0-14.68895037 0-2.02812082 1.64411677-3.6722376 3.6722376-3.6722376s3.6722376 1.64411678 3.6722376 3.6722376z"/><path d="m78.6609322 9.44730309 5.6788678-7.06208975c1.368712-1.7220786 3.6863497-2.21297297 5.1765887-1.09644326s1.5887561 3.4176764.220044 5.139755l-6.7515015 8.39598872 6.7515015 8.3959888c1.3687121 1.7220786 1.270195 4.0232253-.220044 5.139755s-3.8078767.6256353-5.1765887-1.0964433l-5.6788678-7.0620897-5.6788678 7.0620897c-1.368712 1.7220786-3.6863498 2.212973-5.1765887 1.0964433-1.490239-1.1165297-1.5887561-3.4176764-.2200441-5.139755l6.7515016-8.3959888-6.7515016-8.39598872c-1.368712-1.7220786-1.2701949-4.02322529.2200441-5.139755 1.4902389-1.11652971 3.8078767-.62563534 5.1765887 1.09644326zm-27.4426689 8.43835031c0 2.4144266 1.3124023 3.6722376 3.6835781 3.6722376 2.3711757 0 3.6608971-1.257811 3.6608971-3.6722376 0-1.6096177 0-6.0979081 0-13.46487119 0-2.02812082 1.6441168-3.6722376 3.6722376-3.6722376 2.0281209 0 3.6722376 1.64411678 3.6722376 3.6722376v14.68895039c0 6.2162547-5.0833541 9.7926336-11.0053723 9.7926336s-11.0280533-3.7264145-11.0280533-9.7926336c0-4.044146 0-8.9404628 0-14.68895039 0-2.02812082 1.6441168-3.6722376 3.6722376-3.6722376s3.6722376 1.64411678 3.6722376 3.6722376z"/></g></g></svg>