<svg height="76" viewBox="0 0 77 76" width="77" xmlns="http://www.w3.org/2000/svg"><g fill="none" fill-rule="evenodd" transform="translate(.288088 .184171)"><path d="m1.91630901 0h71.94806359c1.0583482 0 1.916309.85796077 1.916309 1.91630901v71.94806359c0 1.0583482-.8579608 1.916309-1.916309 1.916309h-71.94806359c-1.05834824 0-1.91630901-.8579608-1.91630901-1.916309v-71.94806359c0-1.05834824.85796077-1.91630901 1.91630901-1.91630901z" fill="#559cd3"/><path d="m37.9758872 53.6186726c0 1.3094575-.1480912 2.6812496-.444278 4.1154174s-.841786 2.7514-1.6368138 3.9517361-1.9018146 2.1902088-3.3203936 2.9696478-3.2502332 1.1691527-5.4950176 1.1691527c-2.8059804 0-5.1442624-.7248675-7.014916-2.174624-1.8706537-1.4497566-3.1177374-3.3125879-3.7412886-5.5885498l7.0616822-2.3850715c.2182429.8729717.6157508 1.5744563 1.1925357 2.1044748.5767849.5300186 1.2860637.7950238 2.1278579.7950238 1.3094575 0 2.1746219-.4520678 2.5955189-1.3562171.4208971-.9041492.6313425-2.0888788.6313425-3.5542241v-21.8397721h8.0437704zm24.1313113-13.1880423c-.6859063-.8729717-1.5822477-1.566662-2.6890511-2.0810917-1.1068034-.5144298-2.1746189-.7716408-3.2034784-.7716408-.5300185 0-1.0678234.0467656-1.6134307.1402983s-1.0366465.272801-1.4731324.5378103c-.4364858.2650092-.8028166.6079573-1.0990035 1.0288543-.2961868.4208971-.444278.9587019-.444278 1.6134307 0 .5611961.1169141 1.0288525.3507458 1.4029832.2338317.3741308.5767797.7014902 1.0288544.9820883.4520746.280598.9898795.5378091 1.6134307.7716408s1.3250358.4754541 2.1044748.7248746c1.1223922.3741307 2.2915332.7872272 3.507458 1.2393019 1.2159249.4520746 2.3227117 1.0522336 3.3203936 1.8004951.997682.7482614 1.823875 1.67578 2.4786037 2.7825834.6547288 1.1068034.9820883 2.4863897.9820883 4.1388005 0 1.9018312-.3507423 3.5464228-1.0522374 4.9338243-.7014951 1.3874014-1.6446022 2.5331596-2.8293495 3.4373088-1.1847473.9041493-2.5409509 1.5744568-4.0686513 2.0109427-1.5277005.4364858-3.1021437.6547255-4.7233769.6547255-2.3694946 0-4.6610109-.4130965-6.8746177-1.2393019-2.2136068-.8262053-4.0530553-2.0031406-5.5184007-3.5308411l5.237804-5.3313362c.8106166.9976819 1.878432 1.8316692 3.2034784 2.5019867 1.3250463.6703176 2.6422785 1.0054713 3.951736 1.0054713.5923737 0 1.1691499-.0623541 1.730346-.1870644.5611961-.1247102 1.0522353-.3273613 1.4731324-.6079594.420897-.280598.7560508-.6547231 1.0054713-1.1223866.2494205-.4676634.3741288-1.028851.3741288-1.6835798 0-.6235512-.1558854-1.1535618-.467661-1.5900477-.3117756-.4364858-.7560492-.8339937-1.3328341-1.1925357-.5767849-.3585419-1.293858-.6859014-2.1512409-.9820882-.8573829-.2961869-1.8316671-.6157521-2.9228817-.9587052-1.0600371-.3429532-2.0966754-.7482554-3.1099462-1.2159188-1.0132707-.4676634-1.9174064-1.0678225-2.7124342-1.8004952-.7950278-.7326726-1.4341582-1.6212198-1.9174104-2.6656681s-.7248746-2.3149148-.7248746-3.8114377c0-1.8394761.3741251-3.4139193 1.1223865-4.7233768.7482615-1.3094576 1.7303399-2.3850673 2.9462648-3.2268614 1.2159249-.8417942 2.587717-1.4575418 4.1154174-1.8472613 1.5277005-.3897195 3.0709666-.5845763 4.6298446-.5845763 1.8706537 0 3.7802506.342948 5.7288482 1.0288544 1.9485975.6859063 3.6555434 1.6991618 5.1208887 3.0397969z" fill="#fafafa"/></g></svg>