<svg height="88" viewBox="0 0 79 88" width="79" xmlns="http://www.w3.org/2000/svg"><g fill="none" fill-rule="evenodd" transform="translate(.306436 .84304)"><path d="m75.6903584 66.8082982-35.1025393 19.8577719v-15.4648046l21.8753393-12.0296948zm2.4026606-2.1723252-12.8442466-7.4156292v-26.692918l12.8442466-7.4156292zm-75.6903584 2.1723252 13.2272-7.6367275 21.8753393 12.0296948v15.4648046zm-2.4026606-2.1723252v-41.5241764l12.8442465 7.4156292v26.692918zm1.50385134-44.2154294 36.00134856-20.36623515v14.95110915l-23.2424346 12.7814883zm75.08531626 0-12.7589139 7.3663623-23.2424346-12.7814883v-14.95110915z" fill="#7cc3fa"/><path d="m37.5051999 67.6836703-21.5783342-11.8663656v-23.5101279l21.5783342 12.4582571zm3.0826192 0v-22.9182364l21.5783342-12.4582571v23.5101279zm-23.2046007-38.0951699 21.6632911-11.9130851 21.6632911 11.9130851-21.6632911 12.5073069z" fill="#1e7ec9"/></g></svg>