<svg height="76" viewBox="0 0 68 76" width="68" xmlns="http://www.w3.org/2000/svg"><g fill="none"><g transform="translate(.232731 -.441426)"><path d="m2.56421421.62119743h62.49853609c1.0583482 0 1.916309.85796076 1.916309 1.91630901 0 .0567643-.0025222.11350057-.0075591.17004095l-5.7711415 64.78242841c-.07081.7948593-.6267902 1.4626362-1.3956611 1.6763014l-25.516071 7.0907819c-.3358739.0933376-.6908462.0932879-1.026694-.0001436l-25.44555414-7.0788518c-.76868878-.2138462-1.32444108-.8816062-1.39516153-1.676346l-5.7657694-64.79435838c-.09380716-1.05418273.68473107-1.9848124 1.73891379-2.07861956.05647816-.00502575.11315156-.00754233.16985289-.00754233z" fill="#1e7ec9"/><path d="m33.8135858 70.5990536 22.0662983-6.1321888 5.1931974-58.26729184h-27.2594957z" fill="#73baf1"/></g><g transform="translate(12.646894 13.889046)"><path d="m10.3519013 17.1624635-.762691-8.56590127h11.8102124v-8.36277253h-20.93375961l2.25166309 25.295279h18.68401292v-8.3666052h-11.0532704zm11.0475214 21.723279-.0383261.0095815-9.2940987-2.5141974-.5940558-6.6687554h-8.38193566l1.1689485 13.1305494 17.10114166 4.756279.0383261-.0134142z" fill="#e6f4ff"/><path d="m21.3706781 17.1624635v8.3646889h10.2809979l-.9696524 10.8501416-9.3094292 2.51803v8.700043l17.1126395-4.7524464 2.0887768-23.4326266.2050451-2.2459142h-19.4122103m.0038326-16.9305901v8.36468884h20.1653198l.1686351-1.88181545.3794292-4.23887554.2012125-2.24208154h-20.9145966" fill="#f8f8f8"/></g></g></svg>