<svg height="77" viewBox="0 0 78 77" width="78" xmlns="http://www.w3.org/2000/svg"><g fill="none" fill-rule="evenodd" transform="translate(-.021609 .137534)"><path d="m14.605013.76651191v75.13847459h-6.22254472c-4.23339298 0-7.66523605-3.432038-7.66523605-7.6656716v-59.80713136c0-4.23363354 3.43184307-7.66567163 7.66523605-7.66567163zm5.8239081 0h49.6778587c4.233393 0 7.6652361 3.43203809 7.6652361 7.66567163v59.80713136c0 4.2336336-3.4318431 7.6656716-7.6652361 7.6656716h-49.6778587z" fill="#559cd3"/><path d="m45.4857881.9630923h6.385998l-9.3629402 13.3974295 9.3629402 13.0674482h-6.8530435l-5.8211129-8.3294295-5.8211129 8.3294295h-6.8530435l9.3629402-13.0674482-9.3629402-13.3974295h6.3859979l6.2881585 8.77610913zm-25.7435838 24.1453443c-2.0238664 1.4992788-4.4852037 2.3785432-7.139907 2.3785432-6.90070814 0-12.49483737-5.9412082-12.49483737-13.2700599 0-7.32885175 5.59412923-13.27005994 12.49483737-13.27005994 2.6547033 0 5.1160406.87926433 7.139907 2.37854313v-2.37854313h5.3549303v26.54011984h-5.3549303zm-7.139907-3.1498776c4.0258139 0 7.2893809-3.4660499 7.2893809-7.7416391 0-4.27558926-3.263567-7.74163916-7.2893809-7.74163916-4.02581394 0-7.28938095 3.4660499-7.28938095 7.74163916 0 4.2755892 3.26356701 7.7416391 7.28938095 7.7416391z" fill="#fff" transform="translate(22.995708 44.075107)"/></g></svg>