<svg height="76" viewBox="0 0 67 76" width="67" xmlns="http://www.w3.org/2000/svg"><g fill="none" transform="translate(-.080513 -.441426)"><path d="m2.28597748.62119743h62.49859472c1.0583482 0 1.916309.85796076 1.916309 1.91630901 0 .0567643-.0025222.11350057-.0075591.17004095l-5.7711369 64.78237731c-.0708123.7948845-.6268249 1.4626758-1.395728 1.67632l-25.5198541 7.0908379c-.335866.0933223-.6908259.093263-1.0266607-.0001714l-25.44365157-7.0788206c-.76869144-.213862-1.32443382-.8816414-1.39513271-1.6763898l-5.76395205-64.79439469c-.09377777-1.05418534.68478639-1.98479332 1.73897174-2.07857108.05646055-.0050226.11311615-.0075376.16979967-.0075376z" fill="#1e7ec9"/><path d="m33.5354077 70.5990536 22.0662983-6.1321888 5.1931974-58.26729184h-27.2633283v64.39948064" fill="#73baf1"/><path d="m24.1991502 50.7115987-.5940558-6.6687554h-8.3800193l1.1689485 13.1305494 17.1011416 4.756279.0383262-8.7134571z" fill="#e6f4ff"/><path d="m43.7857446 39.8557082-10.4323862.0019163v-8.3646889h19.5559334l-.2031287 2.2459142-2.0887768 23.4326266-17.1164721 4.7524463v-8.7000429l9.3132618-2.51803zm10.6237249-25.3278563.0137065-.0057489-.0004817.0057489h.002398l-.041686.4689672-.6558505 7.8286509-.0476104.0201844-.0041299.0449701-.1015581-.0001637-20.1059205 8.5239062v8.3627725l-.0114978-16.4610944 1.0877774-.4562482-1.0858611-.0017497v.0019163-8.3321116z" fill="#f8f8f8"/><g fill="#e6f4ff"><path d="m13.4793176 22.8273863-.7665236-8.3014507h20.8206974v8.3359442l-20.0560901-.0344935z"/><path d="m14.8513948 39.8576245h18.6073606v-16.5339142l-19.2684872 8.0753262z"/></g></g></svg>