<svg height="82" viewBox="0 0 81 82" width="81" xmlns="http://www.w3.org/2000/svg"><path d="m78.1675859 41.475183c-2.9721631-1.1624701-7.0977569-.5875627-9.9795257.6309519-.4827053.204291-.8677848.3001089-.8677848.3001089s-.5857548-.88044-.7593118-1.2293618c-.3760401-.7412329-.6942278-1.511392-.8858636-2.3177087-.3380746-1.4282292-.2476803-3.2776957.2838379-4.640841.1446308-.361577.7954694-1.3595296.3471139-1.6939883-.4194293-.3109563-1.0937704-.347114-1.5945546-.3850796-.5893705-.0433892-1.2293618-.0632759-1.8078851.0903943-1.1208887.3001089-1.1028099.7954694-1.4209976 1.8024614-1.1028099 3.4711394-3.1710305 6.466805-4.8993686 9.6468748-1.0576128-.3109562-1.3161403-3.303006-1.3107167-4.1255937 0-.9039426.1518624-1.8078851.4121978-2.67567.1717491-.5676759.4790896-1.2293618.4067741-1.8350033-.1048573-.8858637-1.9525158-.6978437-2.5274233-.645415-1.1932041.1084731-1.8259639.2892616-2.2544327 1.5240471-2.0429101 5.9334789-7.1953826 16.3252023-7.7250929 16.5096066-.6833806-1.4607712 1.0124156-6.5373125 1.3631453-7.5244177.2350251-.6653017.8460902-1.856698.629144-2.5762363-.3796558-1.2745589-1.7319539-.6743411-2.6123939-.5387497.1518623-1.0756916.3688085-2.4514922-.1301677-3.4711394-1.4463081-2.9558921-6.4631892.157286-7.7377482 1.8693532-.3905032.5279025-.8569375 1.0847311-1.57286 1.6397518-1.3776084 1.0666522-7.3400134 3.7296669-7.3400134 3.7296669s-2.4153345-2.2996298-3.2939666-3.0245917l-.2169463-.1771728c-1.2564801-.9997604-2.6756699-1.8187324-3.9375737-2.8926161-1.2926378-1.0991941-2.5274233-2.3086693-3.3807451-3.7784798-1.9615553-3.3807451-.4845132-6.2444351 1.2890221-9.2563716.6689175-1.1299282 1.3866479-1.5005447 2.0121761-2.2960141.4519713-.5694838 1.542126-1.4643869 2.3104771-2.0067524 3.0914835-2.187541 6.3149426-3.964692 9.581791-5.5176653 1.9525158-.9256371 4.0008496-1.6415596 6.0672623-2.2707036 1.8910478-.5749075 3.7423221-.7050752 5.6713355-.9581791 2.9595079-.3905032 7.3472449-.0289262 9.3829235 2.4171423 2.2688958 2.7190592-.1392071 6.7289483-2.0067524 8.9779573-2.1061861 2.5400786-5.0132653 4.279264-8.0812463 5.4959707-3.335548 1.3197561-7.2008063 2.2923982-10.7858424 1.415574-.9220214-.2277935-1.7681116-.5929863-2.5888914-1.0594207-.3760401-.2133304-1.3794163-1.2835984-1.6487912-1.1932041-.8243956.2784143.5242867 2.5888914 1.0774995 2.5888914 0 .4049663 1.0774995.8822479 1.542126 1.2167067.723154.518863 1.5638206.7141146 2.4279896.8949031 1.8115009.3796558 3.6754304.4212372 5.5285126.235025 7.629275-.7647354 14.7523423-5.7129168 16.7337843-8.636267.4989763-.7340013 1.0124156-1.4698106 1.4065346-2.26528.7340013-1.4680027 1.1570464-3.0950993 1.2564801-4.7240037.2133305-3.4602921-1.1932041-6.3908738-4.3877371-7.9908521-.7954694-.4013504-1.6270965-.7267698-2.4587237-1.03049446-3.413287-1.25648013-8.9779573-1.1751253-12.7022005-.23140929-1.9018952.48270532-3.682662 1.05580485-5.5411678 1.75003275-5.9370946 2.2236987-12.1363326 5.3603793-16.5168381 9.5402096-1.8910478 1.8042693-3.7206275 4.0406231-4.93552628 6.3312135-1.63252022 3.0661731-1.61444137 6.0961885.33445878 9.0104993 1.8585058 2.7805272 4.7420825 5.0620782 7.5515359 6.8048794.6996516.4338924 1.47885 1.0196472 2.1604227 1.5367023.5730996.4338924 1.3649532.8388587 1.8259639 1.29083.3561534.3489218 1.6505991 1.211283 1.6505991 1.211283s-2.3213244 1.4336528-2.9341975 1.7355697c-.6743411.3344587-4.404008 3.0679809-5.662296 3.9918102-2.2923983 1.6813331-4.1400569 4.5631019-3.6266175 7.6003489.5242867 3.1131781 3.2415379 5.2790244 7.9076893 4.0858203 3.4385975-.8786322 5.5990201-2.7877588 7.6292751-5.2916797 1.3739926-1.6939883 2.3231323-5.1470488 1.8440428-7.408713 0-1.0991942-.0903943-1.9434765-.488129-2.9757789-.1627097-.4158135-.5206709-1.0395339-.0813548-1.3739926.5604443-.424853 1.3269876-.7050752 1.9308212-1.1028099.4393161-.2892616 1.4173819-1.0124157 1.9344371-1.0124157-.0180789.8804401-.3706165 1.8747769-.5459813 2.7479854-.2223699 1.1082335-.2784143 2.1098018-.2784143 3.2469616 0 1.9037029.6092572 4.514289 2.028447 5.9208236 1.4770421 1.4643869 3.539839.6146809 4.4112396-.6616859.565868-.8225878.9147899-1.8747769 1.401111-2.753409.4158135-.755696.6363755-1.8494665 1.1624701-2.5039209.2259856.6761491.0054236 1.5800916.0180788 2.2923983.0307341 1.8440428.8858637 3.3156613 1.6325202 3.3626663 1.9579396.0180788 2.8926162-1.7211066 3.6989329-3.1927251 1.2474407-2.2833588 2.5436943-4.5323679 3.7061644-6.8627317.5785232-1.1678938.9690264-2.3104772 1.5294708-3.4711394.3742322-.7773906.6327598-1.8982793 1.1751253-2.5671968.755696 1.9525159 1.0413418 4.0008497 2.091723 5.8467003.5242867.9147899-.6653017 1.5764758-1.2004357 2.3014377-.6833805.9274451-1.4915051 1.7536486-2.2526248 2.6214334-.9617948 1.0883468-2.579852 2.5726205-1.3486822 3.9140712.9581791 1.0485734 3.9773471.0235025 5.0693097-.4610107 3.3337401-1.4824658 4.9427578-4.5558704 3.7784798-8.0577438-.0903942-.2711827-.2097146-.5785232-.4338924-.7773906.849706-1.4824657 1.8440428-2.910695 2.3466349-3.8019823.4664343-.8280114 1.9073187-3.807406 2.2598563-3.807406.2350251 1.1299282.9328687 3.2053803 1.9272055 5.3874976-1.8078851 1.4408844-4.1255937 5.5863649-4.1255937 6.5987805-.3579613 1.2600959.0253103 2.9757788 1.7211066 2.8835767 1.4788499-.0813548 3.9050317-1.2600959 4.9120237-2.3394033.5839469-.6255282 1.6144414-1.4372686 1.9470922-2.6539753.2440645-.8858637.1120889-1.8512743-.1120888-2.7299065-.1988674-.7719669-.7050752-1.2058593.1554781-1.5602048 1.3703769-.5640601 2.8980398-.7520802 4.3750819-.7828142 2.7532821-.0554352 5.7124828.3678572 7.8364264 2.1077329-2.3073536 20.0504297-19.3396044 35.6198739-40.0082938 35.6198739-22.2429099 0-40.27435108-18.0314412-40.27435108-40.2743511 0-22.24291 18.03144118-40.27435113 40.27435108-40.27435113s40.2743511 18.03144113 40.2743511 40.27435113c0 .7135651-.0185573 1.4227959-.0552156 2.1272362-.882219-.5801102-1.8677734-1.0577837-2.8947956-1.4606924zm-52.7504709 12.5684171c-.488129 1.3920715-1.2329776 2.6937487-2.2779352 3.7567852-.9328687.9473318-2.091723 1.7807668-3.3319322 2.296014-3.4982576 1.4408844-5.2211721-.3290351-3.7242433-3.2180354.7466566-1.4354608 1.6722937-2.7895667 2.8817688-3.8959924 1.0937705-.9997604 2.2236987-1.493313 3.2596168-2.2851667.8858637-.6725333 3.3482032-1.8982793 3.3482032-1.8982793s.4700501 3.460292-.1554781 5.2464825zm13.9749517-6.9820522c-.7050752 1.7355697-1.8928557 4.892137-2.9161187 5.8864738-.3579612.347114-.5333261.7050752-.9581791.2060989-.2169462-.2567197-.3344587-.5966021-.4158135-.9165977-.5749075-2.2544327-.063276-4.8957528.8732085-6.9513182 2.9504684-6.4722285 5.065694-5.174167 5.065694-5.174167.1120888 1.6054019-1.0485734 5.4815075-1.6451755 6.9495102zm12.1670666 6.3818343.0036157.0018079c1.4336529.488129 4.6299937-3.7260511 3.5741888-4.2431063-.5206709.9057505-1.2835984 1.6415597-1.9778263 2.4189503-.4248529.4772816-1.4282292 1.2076672-1.5999782 1.8223481zm12.9227625-3.539839c-.4646265.5279025-2.3466348 1.8440428-2.1296886.4483555.1590939-1.0304945.8280113-1.9073187 1.3776084-2.7660641.3434982-.535134 1.2365934-1.3125246 1.2365934-1.6162493.126552-.0180788.2422566-.0614681.3434982-.1337835.5152472 1.3812242.141015 2.9649315-.8280114 4.0677414z" fill="#539ad1" transform="translate(-.291401 -.060975)"/></svg>