<svg height="81" viewBox="0 0 79 81" width="79" xmlns="http://www.w3.org/2000/svg"><g fill="none" transform="translate(.544838 .152848)"><path d="m39.3095601.76652361c5.6416137 0 10.5511974 3.21939914 12.9599978 7.94118454 5.016897-1.57903862 10.7045022-.36793133 14.659764 3.58733045 3.9475966 3.9475966 5.1625365 9.6313691 3.5892468 14.6406009 4.7179528 2.4260472 7.9201051 7.3643755 7.9201051 13.0768927v32.7171438c0 4.148809-3.3688712 7.5119313-7.5176802 7.5119313h-63.13854939c-4.15072533 0-7.51768026-3.3631223-7.51768026-7.5119313v-32.8397876c0-5.6262832 3.20023605-10.5243691 7.89519313-12.9427511-1.57712232-5.0130643-.36409871-10.6987532 3.58924682-14.6520987 3.9399313-3.94184761 9.6045407-5.15870384 14.6099399-3.60266092 2.4107167-4.71412017 7.3164678-7.92777038 12.9504163-7.92777038zm-31.13043993 26.16911589-.01916309.0095815.00958155.0268284.00766523-.0191631.00958155-.0191631h-.00766524zm62.32603433-.0038326.0095816.0191631v-.0153305l-.0076653-.0038326h-.0038326z" fill="#7cc3fa"/><path d="m4.39824249 39.8822232v30.4731459c0 3.1734077 2.57551931 5.7527597 5.74892701 5.7527597h58.4052661c3.181073 0 5.7489271-2.5755194 5.7489271-5.7527597v-30.3811631c0-5.6626931-4.3787661-10.213927-9.8824056-10.4822103 3.6448197-4.0855708 3.5068455-10.3538176-.4139228-14.2765021-3.9284334-3.9284335-10.2177596-4.0568262-14.3014141-.3870945-.2491202-5.52663515-4.8099357-9.93031326-10.3959764-9.93031326-5.5707103 0-10.1181116 4.37876609-10.3902275 9.88240556-4.0855708-3.621824-10.3365708-3.4742682-14.2477575.4369185-3.9207682 3.9226845-4.0568262 10.1947639-.4120064 14.2765021-5.49405798.2836138-9.86132622 4.8290987-9.86132622 10.3902275z" fill="#1e7ec9"/><g fill="#f6fbff"><path d="m9.45154936 39.9052189v-.0498241c0-3.0469313 2.47203864-5.5189699 5.51896994-5.5189699 1.475558 0 2.8112253.5748927 3.8000408 1.5177167h11.0896802l-7.7917124-7.7917124c-1.3682446-.030661-2.728824-.5691438-3.7751288-1.6154485-2.1558476-2.152015-2.1558476-5.6473627 0-7.7993777 2.1558477-2.1577639 5.649279-2.1577639 7.8051267 0 1.0424721 1.0386395 1.5809549 2.3953863 1.6154484 3.7597983l7.7744657 7.7744657v-11.0954292c-.9466566-.9926481-1.5272983-2.3340644-1.5272983-3.813455 0-3.0469313 2.4720387-5.51896992 5.51897-5.51896992s5.5189699 2.47203862 5.5189699 5.51896992c0 1.475558-.5787253 2.8131417-1.5177167 3.8019571v11.1644163l7.8223734-7.8185407c.0306609-1.3720773.5691438-2.7326567 1.6135322-3.7751288 2.1558476-2.157764 5.649279-2.157764 7.8051266 0 2.1558476 2.152015 2.1558476 5.6473627 0 7.7993777-1.0424721 1.0443884-2.3953863 1.5828712-3.7617146 1.6173648l-7.7993777 7.7993777h11.0954292c.9926481-.9447404 2.337897-1.525382 3.8134549-1.525382 3.0469314 0 5.51897 2.4720386 5.51897 5.5189699v.0498241h-60.13377683z"/><path d="m18.4628458 60.593691c-5.5089383 0-10.77562689-4.0817382-10.77562689-9.0488112 0-4.9709056 4.71489749-9.0009034 10.53337709-9.0009034 5.8184797 0 10.5356202 4.0319142 10.5356202 9.0028197h-5.8723129c0-2.2037553-2.0860393-3.9859227-4.6655503-3.9859227-2.5727819 0-4.6610643 1.7821674-4.6610643 3.9859227 0 1.9431374 1.8056578 4.0280816 4.6610643 4.0280816 6.3366249 0 10.5356202 4.0299978 10.5356202 9.0009034 0 4.9689893-4.7171406 8.9989871-10.5356202 8.9989871s-10.53337715-4.0299978-10.53337715-8.9989871h5.87006985c0 2.1999228 2.0860393 3.9859228 4.6610642 3.9859228s4.6655504-1.786 4.6655504-3.9859228c0-2.1232704-1.4220956-3.9801738-4.4233006-3.9801738zm10.7307658-17.8082597 7.271978 30.5363842h5.7332436l7.5994637-30.5421331h-5.7332436l-4.569099 18.8948069-4.5982588-18.8948069-5.7018409.0057489zm20.9501155 8.3685215c.2467358-4.7907725 4.8674251-8.6099764 10.5333772-8.6099764 5.7377297 0 10.4077661 3.9226845 10.531134 8.799691h-5.8723129c-.1233679-2.1079399-2.16006-3.7808777-4.6565781-3.7808777-2.4224973 0-4.4120853 1.5713734-4.6431198 3.5911631l.0044861 13.5827983c.2422497 2.0044592 2.2273517 3.5681674 4.6386337 3.5681674 2.3731501 0 4.3290924-1.5138842 4.6251754-3.4742683l-.0358888-4.3174442h-4.4771339v-4.886588h10.4189814v9.2059485c-.3207566 4.7332833-4.9122862 8.4930816-10.528891 8.4930816-5.5717438 0-10.1341137-3.6984764-10.5109467-8.3742704l-.0224305-13.7935923z"/></g></g></svg>