<svg height="90" viewBox="0 0 79 90" width="79" xmlns="http://www.w3.org/2000/svg"><g fill="none" fill-rule="evenodd" transform="translate(-.635876 .69867)"><path d="m2.92969317 20.687485c-1.31287511.7462486-2.11823829 2.1239385-2.11823829 3.6131556v39.9103632c0 1.4900372.80536318 2.866907 2.11823829 3.6131557l35.05409813 19.9568216c1.3103791.7437885 2.9260974.7437885 4.2348126 0l35.0482741-19.9568216c1.3062193-.7462487 2.1132464-2.1239386 2.1132464-3.6131557v-39.9103632c0-1.4892171-.8070271-2.866907-2.1215662-3.6131556l-35.0432823-19.9412407c-.6572695-.37148423-1.3894179-.55763637-2.1215662-.55763637-.7321484 0-1.4642967.18615214-2.1215663.55763637z" fill="#559cd3"/><g fill="#fff" transform="translate(6.463713 25.8101)"><path d="m45.8476491 20.1457846c0 .0738149-.0402332.1421381-.1059639.1786418l-2.4086923 1.3545118c-.0653996.0366652-.1461971.0366652-.2114312 0l-2.4090235-1.3545118c-.0662274-.0366652-.1059639-.1049884-.1059639-.1786418v-2.7129002c0-.0739764.0397365-.1421381.1043083-.1792879l2.4073678-1.3567731c.0662274-.0371497.147356-.0371497.2135835 0l2.4090235 1.3567731c.0662274.0371498.1059639.1053115.1059639.1792879zm.6506847-20.09348688c-.1314615-.0713921-.2914008-.06945386-.4212066.00436106-.1291435.07429948-.2089476.20997679-.2089476.35696055v10.49883957c0 .1033732-.0562933.1986704-.1480183.250357-.0910628.0516866-.2044773.0516866-.2963679 0l-1.7566831-.9870525c-.2615984-.1476298-.5837949-.1476298-.8463868 0l-7.0151426 3.9496635c-.2620951.1469838-.4238556.4199536-.4238556.7139211v7.9015882c0 .2955827.1617605.5669374.4238556.7155363l7.0151426 3.9524093c.2619296.1469838.5844573.1469838.8472147 0l7.0151426-3.9540245c.2615984-.148599.4238557-.4199536.4238557-.7155363v-19.6925927c0-.29978225-.1672243-.57549793-.4354455-.72199712z"/><path d="m18.1148197 13.9421757 7.0136091-4.00200667c.1315499-.07455315.2780865-.11191202.4246231-.11191202.1465367 0 .2930733.03735887.4246232.11191202l7.0137756 4.00200667c.2630998.1497646.4246231.4262532.4246231.7251241v8.009609c0 .2988709-.1615233.5753594-.4229579.725124l-7.0147747 4.0051337c-.2619342.1492709-.5853139.1492709-.8475812 0l-7.0159403-4.0051337c-.2627668-.1497646-.4239571-.4260885-.4239571-.725124v-8.009609c0-.2988709.1611903-.5753595.4239571-.7251241zm10.0591859 6.2036089-.0008278-2.7129002c0-.0739764-.0397365-.1421381-.1059639-.1792879l-2.4090235-1.3567731c-.0662275-.0371497-.1473561-.0371497-.2135835 0l-2.4073678 1.3567731c-.0645718.0371498-.1043083.1053115-.1043083.1792879v2.7129002c0 .0736534.0397365.1419766.105964.1786418l2.4090234 1.3545118c.0652341.0366652.1460316.0366652.2114312 0l2.4086923-1.3545118c.0657308-.0365037.1059639-.1048269.1059639-.1786418z"/><path d="m68.3755132 17.3648529c.2613755-.1502946.4222859-.4278625.4222859-.7271361v-1.9495534c0-.2999313-.1610764-.5766771-.4229502-.7276293l-6.9910492-4.01881624c-.2640325-.15128113-.587846-.15128113-.8518785 0l-7.0342244 4.02046054c-.2640325.1512811-.4251089.4275337-.4251089.7284516v8.0409211c0 .3025622.1643976.5821035.4284301.7317402l6.9893887 3.94482c.2573901.1463481.5729007.1479924.833612.0049331l4.2278412-2.3267696c.1328465-.0739962.2175362-.2137668.2175362-.365048 0-.1512811-.0813685-.2926961-.214215-.3666923l-7.0773995-4.0221049c-.1328466-.0739962-.2142151-.2137668-.2142151-.3634036v-2.5224484c0-.1506234.0797079-.2894074.2125545-.3643902l2.2019314-1.2579356c.131186-.0756405.2922624-.0756405.4234484 0l2.203592 1.2579356c.1311859.0739962.2125544.2137668.2125544.3634035v1.9830984c0 .1496368.0813685.2894074.2125545.3650479.131186.0739962.293923.0739962.4251089-.0016443z"/><path d="m15.7252112 14.5739873c0-.2961554-.1606709-.5681678-.4237074-.7154407l-7.0158533-3.92245037c-.11843269-.0676007-.25111044-.10301059-.38561022-.10783922h-.07255038c-.13449978.00482863-.26717752.04023852-.3875979.10783922l-7.01552199 3.92245037c-.26138012.1480777-.42437001.42009-.42437001.7162455l.01540453 10.5650242c0 .1464682.07785086.2832792.21036297.3557085.1291993.0772579.29152662.0772579.42072592 0l4.17081843-2.3209575c.26336781-.1522625.42403873-.4213777.42403873-.714636v-4.9356561c0-.2945459.16067093-.5665583.42321053-.7130265l1.77566217-.9937303c.13184955-.0740389.27661902-.1107364.42403873-.1107364.14510076 0 .29318303.0363756.42138849.1105754l1.774834.9934085c.2627052.1464681.4240387.4184805.4240387.7130264v4.9353342c0 .2929364.1628242.5633392.4248669.714636l4.1681682 2.319348c.1308557.0756484.29368.0756484.4240387 0 .1285368-.0724294.2100317-.2092403.2100317-.3557085z"/></g></g></svg>